G04 #@! TF.FileFunction,Copper,L1,Top,Signal*
%FSLAX46Y46*%
G04 Gerber Fmt 4.6, Leading zero omitted, Abs format (unit mm)*
G04 Created by KiCad (PCBNEW 4.0.5+dfsg1-4) date Sat Jun 20 17:51:13 2020*
%MOMM*%
%LPD*%
G01*
G04 APERTURE LIST*
%ADD10C,0.100000*%
%ADD11R,1.300000X1.300000*%
%ADD12C,1.300000*%
%ADD13C,1.998980*%
%ADD14R,1.400000X1.400000*%
%ADD15C,1.400000*%
%ADD16C,2.600000*%
%ADD17R,2.400000X2.400000*%
%ADD18O,2.400000X2.400000*%
%ADD19R,1.600000X1.600000*%
%ADD20O,1.600000X1.600000*%
%ADD21O,1.981200X3.962400*%
G04 APERTURE END LIST*
D10*
D11*
X128600000Y-137200000D03*
D12*
X126100000Y-137200000D03*
D13*
X115850000Y-152200000D03*
X115850000Y-167200000D03*
D14*
X131100000Y-142200000D03*
D15*
X126100000Y-142200000D03*
D14*
X128600000Y-152200000D03*
D15*
X133600000Y-152200000D03*
D16*
X121100000Y-167200000D03*
X126100000Y-167200000D03*
D13*
X115850000Y-149699360D03*
X115850000Y-144698100D03*
X121100000Y-137200640D03*
X121100000Y-142201900D03*
X118600000Y-146450000D03*
X128760000Y-146450000D03*
D17*
X131100000Y-154700000D03*
D18*
X131100000Y-167400000D03*
D13*
X110100000Y-157200000D03*
X110100000Y-167360000D03*
X112850000Y-157200000D03*
X112850000Y-167360000D03*
D11*
X113600000Y-137200000D03*
D12*
X116100000Y-137200000D03*
D19*
X126100000Y-157200000D03*
D20*
X118480000Y-149580000D03*
X126100000Y-154660000D03*
X118480000Y-152120000D03*
X126100000Y-152120000D03*
X118480000Y-154660000D03*
X126100000Y-149580000D03*
X118480000Y-157200000D03*
D21*
X131100000Y-127900000D03*
X126100000Y-127900000D03*
X121100000Y-127900000D03*
X116100000Y-127900000D03*
X154400000Y-128000000D03*
X149400000Y-128000000D03*
X164400000Y-128000000D03*
X159400000Y-128000000D03*
D19*
X159400000Y-157300000D03*
D20*
X151780000Y-149680000D03*
X159400000Y-154760000D03*
X151780000Y-152220000D03*
X159400000Y-152220000D03*
X151780000Y-154760000D03*
X159400000Y-149680000D03*
X151780000Y-157300000D03*
D11*
X146900000Y-137300000D03*
D12*
X149400000Y-137300000D03*
D13*
X146150000Y-157300000D03*
X146150000Y-167460000D03*
X143400000Y-157300000D03*
X143400000Y-167460000D03*
D17*
X164400000Y-154800000D03*
D18*
X164400000Y-167500000D03*
D13*
X151900000Y-146550000D03*
X162060000Y-146550000D03*
X154400000Y-137300640D03*
X154400000Y-142301900D03*
X149150000Y-149799360D03*
X149150000Y-144798100D03*
D16*
X154400000Y-167300000D03*
X159400000Y-167300000D03*
D14*
X161900000Y-152300000D03*
D15*
X166900000Y-152300000D03*
D14*
X164400000Y-142300000D03*
D15*
X159400000Y-142300000D03*
D13*
X149150000Y-152300000D03*
X149150000Y-167300000D03*
D11*
X161900000Y-137300000D03*
D12*
X159400000Y-137300000D03*
D11*
X95200000Y-137100000D03*
D12*
X92700000Y-137100000D03*
D13*
X82450000Y-152100000D03*
X82450000Y-167100000D03*
D14*
X97700000Y-142100000D03*
D15*
X92700000Y-142100000D03*
D14*
X95200000Y-152100000D03*
D15*
X100200000Y-152100000D03*
D16*
X87700000Y-167100000D03*
X92700000Y-167100000D03*
D13*
X82450000Y-149599360D03*
X82450000Y-144598100D03*
X87700000Y-137100640D03*
X87700000Y-142101900D03*
X85200000Y-146350000D03*
X95360000Y-146350000D03*
D17*
X97700000Y-154600000D03*
D18*
X97700000Y-167300000D03*
D13*
X76700000Y-157100000D03*
X76700000Y-167260000D03*
X79450000Y-157100000D03*
X79450000Y-167260000D03*
D11*
X80200000Y-137100000D03*
D12*
X82700000Y-137100000D03*
D19*
X92700000Y-157100000D03*
D20*
X85080000Y-149480000D03*
X92700000Y-154560000D03*
X85080000Y-152020000D03*
X92700000Y-152020000D03*
X85080000Y-154560000D03*
X92700000Y-149480000D03*
X85080000Y-157100000D03*
D21*
X97700000Y-127800000D03*
X92700000Y-127800000D03*
X87700000Y-127800000D03*
X82700000Y-127800000D03*
X54400000Y-127700000D03*
X49400000Y-127700000D03*
X64400000Y-127700000D03*
X59400000Y-127700000D03*
D19*
X59400000Y-157000000D03*
D20*
X51780000Y-149380000D03*
X59400000Y-154460000D03*
X51780000Y-151920000D03*
X59400000Y-151920000D03*
X51780000Y-154460000D03*
X59400000Y-149380000D03*
X51780000Y-157000000D03*
D11*
X46900000Y-137000000D03*
D12*
X49400000Y-137000000D03*
D13*
X46150000Y-157000000D03*
X46150000Y-167160000D03*
X43400000Y-157000000D03*
X43400000Y-167160000D03*
D17*
X64400000Y-154500000D03*
D18*
X64400000Y-167200000D03*
D13*
X51900000Y-146250000D03*
X62060000Y-146250000D03*
X54400000Y-137000640D03*
X54400000Y-142001900D03*
X49150000Y-149499360D03*
X49150000Y-144498100D03*
D16*
X54400000Y-167000000D03*
X59400000Y-167000000D03*
D14*
X61900000Y-152000000D03*
D15*
X66900000Y-152000000D03*
D14*
X64400000Y-142000000D03*
D15*
X59400000Y-142000000D03*
D13*
X49150000Y-152000000D03*
X49150000Y-167000000D03*
D11*
X61900000Y-137000000D03*
D12*
X59400000Y-137000000D03*
M02*
