G04 #@! TF.FileFunction,Copper,L2,Bot,Signal*
%FSLAX46Y46*%
G04 Gerber Fmt 4.6, Leading zero omitted, Abs format (unit mm)*
G04 Created by KiCad (PCBNEW 4.0.5+dfsg1-4) date Sat Jun 20 17:51:13 2020*
%MOMM*%
%LPD*%
G01*
G04 APERTURE LIST*
%ADD10C,0.100000*%
%ADD11R,1.300000X1.300000*%
%ADD12C,1.300000*%
%ADD13C,1.998980*%
%ADD14R,1.400000X1.400000*%
%ADD15C,1.400000*%
%ADD16C,2.600000*%
%ADD17R,2.400000X2.400000*%
%ADD18O,2.400000X2.400000*%
%ADD19R,1.600000X1.600000*%
%ADD20O,1.600000X1.600000*%
%ADD21O,1.981200X3.962400*%
%ADD22C,1.000000*%
%ADD23C,0.250000*%
%ADD24C,0.254000*%
G04 APERTURE END LIST*
D10*
D11*
X128600000Y-137200000D03*
D12*
X126100000Y-137200000D03*
D13*
X115850000Y-152200000D03*
X115850000Y-167200000D03*
D14*
X131100000Y-142200000D03*
D15*
X126100000Y-142200000D03*
D14*
X128600000Y-152200000D03*
D15*
X133600000Y-152200000D03*
D16*
X121100000Y-167200000D03*
X126100000Y-167200000D03*
D13*
X115850000Y-149699360D03*
X115850000Y-144698100D03*
X121100000Y-137200640D03*
X121100000Y-142201900D03*
X118600000Y-146450000D03*
X128760000Y-146450000D03*
D17*
X131100000Y-154700000D03*
D18*
X131100000Y-167400000D03*
D13*
X110100000Y-157200000D03*
X110100000Y-167360000D03*
X112850000Y-157200000D03*
X112850000Y-167360000D03*
D11*
X113600000Y-137200000D03*
D12*
X116100000Y-137200000D03*
D19*
X126100000Y-157200000D03*
D20*
X118480000Y-149580000D03*
X126100000Y-154660000D03*
X118480000Y-152120000D03*
X126100000Y-152120000D03*
X118480000Y-154660000D03*
X126100000Y-149580000D03*
X118480000Y-157200000D03*
D21*
X131100000Y-127900000D03*
X126100000Y-127900000D03*
X121100000Y-127900000D03*
X116100000Y-127900000D03*
X154400000Y-128000000D03*
X149400000Y-128000000D03*
X164400000Y-128000000D03*
X159400000Y-128000000D03*
D19*
X159400000Y-157300000D03*
D20*
X151780000Y-149680000D03*
X159400000Y-154760000D03*
X151780000Y-152220000D03*
X159400000Y-152220000D03*
X151780000Y-154760000D03*
X159400000Y-149680000D03*
X151780000Y-157300000D03*
D11*
X146900000Y-137300000D03*
D12*
X149400000Y-137300000D03*
D13*
X146150000Y-157300000D03*
X146150000Y-167460000D03*
X143400000Y-157300000D03*
X143400000Y-167460000D03*
D17*
X164400000Y-154800000D03*
D18*
X164400000Y-167500000D03*
D13*
X151900000Y-146550000D03*
X162060000Y-146550000D03*
X154400000Y-137300640D03*
X154400000Y-142301900D03*
X149150000Y-149799360D03*
X149150000Y-144798100D03*
D16*
X154400000Y-167300000D03*
X159400000Y-167300000D03*
D14*
X161900000Y-152300000D03*
D15*
X166900000Y-152300000D03*
D14*
X164400000Y-142300000D03*
D15*
X159400000Y-142300000D03*
D13*
X149150000Y-152300000D03*
X149150000Y-167300000D03*
D11*
X161900000Y-137300000D03*
D12*
X159400000Y-137300000D03*
D11*
X95200000Y-137100000D03*
D12*
X92700000Y-137100000D03*
D13*
X82450000Y-152100000D03*
X82450000Y-167100000D03*
D14*
X97700000Y-142100000D03*
D15*
X92700000Y-142100000D03*
D14*
X95200000Y-152100000D03*
D15*
X100200000Y-152100000D03*
D16*
X87700000Y-167100000D03*
X92700000Y-167100000D03*
D13*
X82450000Y-149599360D03*
X82450000Y-144598100D03*
X87700000Y-137100640D03*
X87700000Y-142101900D03*
X85200000Y-146350000D03*
X95360000Y-146350000D03*
D17*
X97700000Y-154600000D03*
D18*
X97700000Y-167300000D03*
D13*
X76700000Y-157100000D03*
X76700000Y-167260000D03*
X79450000Y-157100000D03*
X79450000Y-167260000D03*
D11*
X80200000Y-137100000D03*
D12*
X82700000Y-137100000D03*
D19*
X92700000Y-157100000D03*
D20*
X85080000Y-149480000D03*
X92700000Y-154560000D03*
X85080000Y-152020000D03*
X92700000Y-152020000D03*
X85080000Y-154560000D03*
X92700000Y-149480000D03*
X85080000Y-157100000D03*
D21*
X97700000Y-127800000D03*
X92700000Y-127800000D03*
X87700000Y-127800000D03*
X82700000Y-127800000D03*
X54400000Y-127700000D03*
X49400000Y-127700000D03*
X64400000Y-127700000D03*
X59400000Y-127700000D03*
D19*
X59400000Y-157000000D03*
D20*
X51780000Y-149380000D03*
X59400000Y-154460000D03*
X51780000Y-151920000D03*
X59400000Y-151920000D03*
X51780000Y-154460000D03*
X59400000Y-149380000D03*
X51780000Y-157000000D03*
D11*
X46900000Y-137000000D03*
D12*
X49400000Y-137000000D03*
D13*
X46150000Y-157000000D03*
X46150000Y-167160000D03*
X43400000Y-157000000D03*
X43400000Y-167160000D03*
D17*
X64400000Y-154500000D03*
D18*
X64400000Y-167200000D03*
D13*
X51900000Y-146250000D03*
X62060000Y-146250000D03*
X54400000Y-137000640D03*
X54400000Y-142001900D03*
X49150000Y-149499360D03*
X49150000Y-144498100D03*
D16*
X54400000Y-167000000D03*
X59400000Y-167000000D03*
D14*
X61900000Y-152000000D03*
D15*
X66900000Y-152000000D03*
D14*
X64400000Y-142000000D03*
D15*
X59400000Y-142000000D03*
D13*
X49150000Y-152000000D03*
X49150000Y-167000000D03*
D11*
X61900000Y-137000000D03*
D12*
X59400000Y-137000000D03*
D22*
X114100000Y-129900000D02*
X116100000Y-127900000D01*
X114100000Y-136700000D02*
X114100000Y-129900000D01*
X112100000Y-138700000D02*
X114100000Y-136700000D01*
X112100000Y-151200000D02*
X112100000Y-138700000D01*
X113100000Y-152200000D02*
X112100000Y-151200000D01*
X115850000Y-152200000D02*
X113100000Y-152200000D01*
X115930000Y-152120000D02*
X115850000Y-152200000D01*
X118480000Y-152120000D02*
X115930000Y-152120000D01*
X151780000Y-152220000D02*
X149230000Y-152220000D01*
X149230000Y-152220000D02*
X149150000Y-152300000D01*
X149150000Y-152300000D02*
X146400000Y-152300000D01*
X146400000Y-152300000D02*
X145400000Y-151300000D01*
X145400000Y-151300000D02*
X145400000Y-138800000D01*
X145400000Y-138800000D02*
X147400000Y-136800000D01*
X147400000Y-136800000D02*
X147400000Y-130000000D01*
X147400000Y-130000000D02*
X149400000Y-128000000D01*
X80700000Y-129800000D02*
X82700000Y-127800000D01*
X80700000Y-136600000D02*
X80700000Y-129800000D01*
X78700000Y-138600000D02*
X80700000Y-136600000D01*
X78700000Y-151100000D02*
X78700000Y-138600000D01*
X79700000Y-152100000D02*
X78700000Y-151100000D01*
X82450000Y-152100000D02*
X79700000Y-152100000D01*
X82530000Y-152020000D02*
X82450000Y-152100000D01*
X85080000Y-152020000D02*
X82530000Y-152020000D01*
X51780000Y-151920000D02*
X49230000Y-151920000D01*
X49230000Y-151920000D02*
X49150000Y-152000000D01*
X49150000Y-152000000D02*
X46400000Y-152000000D01*
X46400000Y-152000000D02*
X45400000Y-151000000D01*
X45400000Y-151000000D02*
X45400000Y-138500000D01*
X45400000Y-138500000D02*
X47400000Y-136500000D01*
X47400000Y-136500000D02*
X47400000Y-129700000D01*
X47400000Y-129700000D02*
X49400000Y-127700000D01*
X123600000Y-137200000D02*
X126100000Y-137200000D01*
X121099360Y-137200000D02*
X123600000Y-137200000D01*
X116100000Y-137200000D02*
X121099360Y-137200000D01*
X123600000Y-154620000D02*
X123600000Y-137200000D01*
X123640000Y-154660000D02*
X123600000Y-154620000D01*
X126100000Y-154660000D02*
X123640000Y-154660000D01*
X126100000Y-142200000D02*
X126100000Y-137200000D01*
D23*
X126100000Y-129740000D02*
X126060000Y-129700000D01*
D22*
X126100000Y-137200000D02*
X126100000Y-129740000D01*
X126060000Y-129700000D02*
X126100000Y-127950000D01*
X126100000Y-127950000D02*
X121100000Y-127900000D01*
X159400000Y-128050000D02*
X154400000Y-128000000D01*
X159360000Y-129800000D02*
X159400000Y-128050000D01*
X159400000Y-137300000D02*
X159400000Y-129840000D01*
D23*
X159400000Y-129840000D02*
X159360000Y-129800000D01*
D22*
X159400000Y-142300000D02*
X159400000Y-137300000D01*
X159400000Y-154760000D02*
X156940000Y-154760000D01*
X156940000Y-154760000D02*
X156900000Y-154720000D01*
X156900000Y-154720000D02*
X156900000Y-137300000D01*
X149400000Y-137300000D02*
X154399360Y-137300000D01*
X154399360Y-137300000D02*
X156900000Y-137300000D01*
X156900000Y-137300000D02*
X159400000Y-137300000D01*
X90200000Y-137100000D02*
X92700000Y-137100000D01*
X87699360Y-137100000D02*
X90200000Y-137100000D01*
X82700000Y-137100000D02*
X87699360Y-137100000D01*
X90200000Y-154520000D02*
X90200000Y-137100000D01*
X90240000Y-154560000D02*
X90200000Y-154520000D01*
X92700000Y-154560000D02*
X90240000Y-154560000D01*
X92700000Y-142100000D02*
X92700000Y-137100000D01*
D23*
X92700000Y-129640000D02*
X92660000Y-129600000D01*
D22*
X92700000Y-137100000D02*
X92700000Y-129640000D01*
X92660000Y-129600000D02*
X92700000Y-127850000D01*
X92700000Y-127850000D02*
X87700000Y-127800000D01*
X59400000Y-127750000D02*
X54400000Y-127700000D01*
X59360000Y-129500000D02*
X59400000Y-127750000D01*
X59400000Y-137000000D02*
X59400000Y-129540000D01*
D23*
X59400000Y-129540000D02*
X59360000Y-129500000D01*
D22*
X59400000Y-142000000D02*
X59400000Y-137000000D01*
X59400000Y-154460000D02*
X56940000Y-154460000D01*
X56940000Y-154460000D02*
X56900000Y-154420000D01*
X56900000Y-154420000D02*
X56900000Y-137000000D01*
X49400000Y-137000000D02*
X54399360Y-137000000D01*
X54399360Y-137000000D02*
X56900000Y-137000000D01*
X56900000Y-137000000D02*
X59400000Y-137000000D01*
D23*
X128520000Y-152120000D02*
X128600000Y-152200000D01*
D22*
X126100000Y-152120000D02*
X128520000Y-152120000D01*
X159400000Y-152220000D02*
X161820000Y-152220000D01*
D23*
X161820000Y-152220000D02*
X161900000Y-152300000D01*
X95120000Y-152020000D02*
X95200000Y-152100000D01*
D22*
X92700000Y-152020000D02*
X95120000Y-152020000D01*
X59400000Y-151920000D02*
X61820000Y-151920000D01*
D23*
X61820000Y-151920000D02*
X61900000Y-152000000D01*
X131140000Y-142160000D02*
X131100000Y-142200000D01*
D22*
X131140000Y-137200000D02*
X131140000Y-142160000D01*
X131140000Y-129700000D02*
X131140000Y-137200000D01*
D23*
X131100000Y-137200000D02*
X131140000Y-137200000D01*
X131140000Y-137200000D02*
X131100000Y-137200000D01*
D22*
X128600000Y-137200000D02*
X131140000Y-137200000D01*
X131100000Y-146450000D02*
X131100000Y-154700000D01*
X131100000Y-145700000D02*
X131100000Y-146450000D01*
X131100000Y-142200000D02*
X131100000Y-145700000D01*
X130850000Y-146450000D02*
X131100000Y-146450000D01*
X131100000Y-146450000D02*
X130850000Y-146450000D01*
X128760000Y-146450000D02*
X131100000Y-146450000D01*
X162060000Y-146550000D02*
X164400000Y-146550000D01*
X164400000Y-146550000D02*
X164150000Y-146550000D01*
X164150000Y-146550000D02*
X164400000Y-146550000D01*
X164400000Y-142300000D02*
X164400000Y-145800000D01*
X164400000Y-145800000D02*
X164400000Y-146550000D01*
X164400000Y-146550000D02*
X164400000Y-154800000D01*
X161900000Y-137300000D02*
X164440000Y-137300000D01*
D23*
X164440000Y-137300000D02*
X164400000Y-137300000D01*
X164400000Y-137300000D02*
X164440000Y-137300000D01*
D22*
X164440000Y-129800000D02*
X164440000Y-137300000D01*
X164440000Y-137300000D02*
X164440000Y-142260000D01*
D23*
X164440000Y-142260000D02*
X164400000Y-142300000D01*
X97740000Y-142060000D02*
X97700000Y-142100000D01*
D22*
X97740000Y-137100000D02*
X97740000Y-142060000D01*
X97740000Y-129600000D02*
X97740000Y-137100000D01*
D23*
X97700000Y-137100000D02*
X97740000Y-137100000D01*
X97740000Y-137100000D02*
X97700000Y-137100000D01*
D22*
X95200000Y-137100000D02*
X97740000Y-137100000D01*
X97700000Y-146350000D02*
X97700000Y-154600000D01*
X97700000Y-145600000D02*
X97700000Y-146350000D01*
X97700000Y-142100000D02*
X97700000Y-145600000D01*
X97450000Y-146350000D02*
X97700000Y-146350000D01*
X97700000Y-146350000D02*
X97450000Y-146350000D01*
X95360000Y-146350000D02*
X97700000Y-146350000D01*
X62060000Y-146250000D02*
X64400000Y-146250000D01*
X64400000Y-146250000D02*
X64150000Y-146250000D01*
X64150000Y-146250000D02*
X64400000Y-146250000D01*
X64400000Y-142000000D02*
X64400000Y-145500000D01*
X64400000Y-145500000D02*
X64400000Y-146250000D01*
X64400000Y-146250000D02*
X64400000Y-154500000D01*
X61900000Y-137000000D02*
X64440000Y-137000000D01*
D23*
X64440000Y-137000000D02*
X64400000Y-137000000D01*
X64400000Y-137000000D02*
X64440000Y-137000000D01*
D22*
X64440000Y-129500000D02*
X64440000Y-137000000D01*
X64440000Y-137000000D02*
X64440000Y-141960000D01*
D23*
X64440000Y-141960000D02*
X64400000Y-142000000D01*
D22*
X126300640Y-167400000D02*
X131100000Y-167400000D01*
D23*
X126100000Y-167199360D02*
X126300640Y-167400000D01*
D22*
X126100000Y-157200000D02*
X126100000Y-167199360D01*
X159400000Y-157300000D02*
X159400000Y-167299360D01*
D23*
X159400000Y-167299360D02*
X159600640Y-167500000D01*
D22*
X159600640Y-167500000D02*
X164400000Y-167500000D01*
X92900640Y-167300000D02*
X97700000Y-167300000D01*
D23*
X92700000Y-167099360D02*
X92900640Y-167300000D01*
D22*
X92700000Y-157100000D02*
X92700000Y-167099360D01*
X59400000Y-157000000D02*
X59400000Y-166999360D01*
D23*
X59400000Y-166999360D02*
X59600640Y-167200000D01*
D22*
X59600640Y-167200000D02*
X64400000Y-167200000D01*
X121100000Y-155700000D02*
X120060000Y-154660000D01*
X120060000Y-154660000D02*
X118480000Y-154660000D01*
X121100000Y-167199360D02*
X121100000Y-155700000D01*
D23*
X121100640Y-167200000D02*
X121100000Y-167199360D01*
D22*
X113010000Y-167200000D02*
X121100640Y-167200000D01*
D23*
X112850000Y-167360000D02*
X113010000Y-167200000D01*
D22*
X110100000Y-167360000D02*
X112850000Y-167360000D01*
X143400000Y-167460000D02*
X146150000Y-167460000D01*
D23*
X146150000Y-167460000D02*
X146310000Y-167300000D01*
D22*
X146310000Y-167300000D02*
X154400640Y-167300000D01*
D23*
X154400640Y-167300000D02*
X154400000Y-167299360D01*
D22*
X154400000Y-167299360D02*
X154400000Y-155800000D01*
X153360000Y-154760000D02*
X151780000Y-154760000D01*
X154400000Y-155800000D02*
X153360000Y-154760000D01*
X87700000Y-155600000D02*
X86660000Y-154560000D01*
X86660000Y-154560000D02*
X85080000Y-154560000D01*
X87700000Y-167099360D02*
X87700000Y-155600000D01*
D23*
X87700640Y-167100000D02*
X87700000Y-167099360D01*
D22*
X79610000Y-167100000D02*
X87700640Y-167100000D01*
D23*
X79450000Y-167260000D02*
X79610000Y-167100000D01*
D22*
X76700000Y-167260000D02*
X79450000Y-167260000D01*
X43400000Y-167160000D02*
X46150000Y-167160000D01*
D23*
X46150000Y-167160000D02*
X46310000Y-167000000D01*
D22*
X46310000Y-167000000D02*
X54400640Y-167000000D01*
D23*
X54400640Y-167000000D02*
X54400000Y-166999360D01*
D22*
X54400000Y-166999360D02*
X54400000Y-155500000D01*
X53360000Y-154460000D02*
X51780000Y-154460000D01*
X54400000Y-155500000D02*
X53360000Y-154460000D01*
X112850000Y-157200000D02*
X110100000Y-157200000D01*
X118480000Y-157200000D02*
X112850000Y-157200000D01*
X151780000Y-157300000D02*
X146150000Y-157300000D01*
X146150000Y-157300000D02*
X143400000Y-157300000D01*
X79450000Y-157100000D02*
X76700000Y-157100000D01*
X85080000Y-157100000D02*
X79450000Y-157100000D01*
X51780000Y-157000000D02*
X46150000Y-157000000D01*
X46150000Y-157000000D02*
X43400000Y-157000000D01*
X120100000Y-149700000D02*
X121100000Y-148700000D01*
X121100000Y-148700000D02*
X121100000Y-142201900D01*
X118361280Y-149700000D02*
X120100000Y-149700000D01*
D23*
X118360640Y-149699360D02*
X118361280Y-149700000D01*
D22*
X115850000Y-149699360D02*
X118360640Y-149699360D01*
X149150000Y-149799360D02*
X151660640Y-149799360D01*
D23*
X151660640Y-149799360D02*
X151661280Y-149800000D01*
D22*
X151661280Y-149800000D02*
X153400000Y-149800000D01*
X154400000Y-148800000D02*
X154400000Y-142301900D01*
X153400000Y-149800000D02*
X154400000Y-148800000D01*
X86700000Y-149600000D02*
X87700000Y-148600000D01*
X87700000Y-148600000D02*
X87700000Y-142101900D01*
X84961280Y-149600000D02*
X86700000Y-149600000D01*
D23*
X84960640Y-149599360D02*
X84961280Y-149600000D01*
D22*
X82450000Y-149599360D02*
X84960640Y-149599360D01*
X49150000Y-149499360D02*
X51660640Y-149499360D01*
D23*
X51660640Y-149499360D02*
X51661280Y-149500000D01*
D22*
X51661280Y-149500000D02*
X53400000Y-149500000D01*
X54400000Y-148500000D02*
X54400000Y-142001900D01*
X53400000Y-149500000D02*
X54400000Y-148500000D01*
D23*
X115851900Y-144700000D02*
X115850000Y-144698100D01*
D22*
X118600000Y-144700000D02*
X115851900Y-144700000D01*
X118600000Y-146450000D02*
X118600000Y-144700000D01*
X151900000Y-146550000D02*
X151900000Y-144800000D01*
X151900000Y-144800000D02*
X149151900Y-144800000D01*
D23*
X149151900Y-144800000D02*
X149150000Y-144798100D01*
X82451900Y-144600000D02*
X82450000Y-144598100D01*
D22*
X85200000Y-144600000D02*
X82451900Y-144600000D01*
X85200000Y-146350000D02*
X85200000Y-144600000D01*
X51900000Y-146250000D02*
X51900000Y-144500000D01*
X51900000Y-144500000D02*
X49151900Y-144500000D01*
D23*
X49151900Y-144500000D02*
X49150000Y-144498100D01*
D24*
G36*
X72523132Y-171373000D02*
X40461132Y-171373000D01*
X40475760Y-157323694D01*
X41765226Y-157323694D01*
X42013538Y-157924655D01*
X42472927Y-158384846D01*
X43073453Y-158634206D01*
X43723694Y-158634774D01*
X44324655Y-158386462D01*
X44576556Y-158135000D01*
X44973516Y-158135000D01*
X45222927Y-158384846D01*
X45823453Y-158634206D01*
X46473694Y-158634774D01*
X47074655Y-158386462D01*
X47326556Y-158135000D01*
X50917233Y-158135000D01*
X51202736Y-158325767D01*
X51622903Y-158409344D01*
X51654590Y-158430994D01*
X51704000Y-158441000D01*
X53265000Y-158441000D01*
X53265000Y-165398902D01*
X52798087Y-165865000D01*
X50326484Y-165865000D01*
X50077073Y-165615154D01*
X49476547Y-165365794D01*
X48826306Y-165365226D01*
X48225345Y-165613538D01*
X47973444Y-165865000D01*
X47166762Y-165865000D01*
X47077073Y-165775154D01*
X46476547Y-165525794D01*
X45826306Y-165525226D01*
X45225345Y-165773538D01*
X44973444Y-166025000D01*
X44576484Y-166025000D01*
X44327073Y-165775154D01*
X43726547Y-165525794D01*
X43076306Y-165525226D01*
X42475345Y-165773538D01*
X42015154Y-166232927D01*
X41765794Y-166833453D01*
X41765226Y-167483694D01*
X42013538Y-168084655D01*
X42472927Y-168544846D01*
X43073453Y-168794206D01*
X43723694Y-168794774D01*
X44324655Y-168546462D01*
X44576556Y-168295000D01*
X44973516Y-168295000D01*
X45222927Y-168544846D01*
X45823453Y-168794206D01*
X46473694Y-168794774D01*
X47074655Y-168546462D01*
X47486835Y-168135000D01*
X47973516Y-168135000D01*
X48222927Y-168384846D01*
X48823453Y-168634206D01*
X49473694Y-168634774D01*
X50074655Y-168386462D01*
X50326556Y-168135000D01*
X52798902Y-168135000D01*
X53302479Y-168639457D01*
X54013416Y-168934663D01*
X54783207Y-168935335D01*
X55494658Y-168641370D01*
X56039457Y-168097521D01*
X56334663Y-167386584D01*
X56334665Y-167383207D01*
X57464665Y-167383207D01*
X57758630Y-168094658D01*
X58302479Y-168639457D01*
X59013416Y-168934663D01*
X59783207Y-168935335D01*
X60494658Y-168641370D01*
X60801563Y-168335000D01*
X62969832Y-168335000D01*
X63102459Y-168533491D01*
X63697776Y-168931269D01*
X64400000Y-169070950D01*
X65102224Y-168931269D01*
X65697541Y-168533491D01*
X66095319Y-167938174D01*
X66235000Y-167235950D01*
X66235000Y-167164050D01*
X66095319Y-166461826D01*
X65697541Y-165866509D01*
X65102224Y-165468731D01*
X64400000Y-165329050D01*
X63697776Y-165468731D01*
X63102459Y-165866509D01*
X62969832Y-166065000D01*
X61107339Y-166065000D01*
X61041370Y-165905342D01*
X60535000Y-165398087D01*
X60535000Y-158339018D01*
X60651441Y-158264090D01*
X60796431Y-158051890D01*
X60847440Y-157800000D01*
X60847440Y-156200000D01*
X60833704Y-156127000D01*
X62720183Y-156127000D01*
X62735910Y-156151441D01*
X62948110Y-156296431D01*
X63200000Y-156347440D01*
X65600000Y-156347440D01*
X65835317Y-156303162D01*
X66051441Y-156164090D01*
X66196431Y-155951890D01*
X66247440Y-155700000D01*
X66247440Y-153361000D01*
X67452000Y-153361000D01*
X67498159Y-153352315D01*
X67540553Y-153325035D01*
X67568994Y-153283410D01*
X67579000Y-153234000D01*
X67579000Y-153177185D01*
X67593831Y-153171042D01*
X67655669Y-152935275D01*
X66900000Y-152179605D01*
X66885858Y-152193748D01*
X66706252Y-152014142D01*
X66720395Y-152000000D01*
X67079605Y-152000000D01*
X67835275Y-152755669D01*
X68071042Y-152693831D01*
X68247419Y-152192878D01*
X68218664Y-151662560D01*
X68071042Y-151306169D01*
X67835275Y-151244331D01*
X67079605Y-152000000D01*
X66720395Y-152000000D01*
X65964725Y-151244331D01*
X65910230Y-151258624D01*
X65716331Y-151064725D01*
X66144331Y-151064725D01*
X66900000Y-151820395D01*
X67655669Y-151064725D01*
X67593831Y-150828958D01*
X67092878Y-150652581D01*
X66562560Y-150681336D01*
X66206169Y-150828958D01*
X66144331Y-151064725D01*
X65716331Y-151064725D01*
X65535000Y-150883394D01*
X65535000Y-143174669D01*
X65551441Y-143164090D01*
X65696431Y-142951890D01*
X65747440Y-142700000D01*
X65747440Y-141300000D01*
X65703162Y-141064683D01*
X65575000Y-140865514D01*
X65575000Y-129853123D01*
X65901859Y-129363944D01*
X66025600Y-128741854D01*
X66025600Y-126658146D01*
X65901859Y-126036056D01*
X65549473Y-125508673D01*
X65022090Y-125156287D01*
X64400000Y-125032546D01*
X63777910Y-125156287D01*
X63250527Y-125508673D01*
X62898141Y-126036056D01*
X62774400Y-126658146D01*
X62774400Y-128741854D01*
X62898141Y-129363944D01*
X63250527Y-129891327D01*
X63305000Y-129927725D01*
X63305000Y-135865000D01*
X62964975Y-135865000D01*
X62801890Y-135753569D01*
X62550000Y-135702560D01*
X61250000Y-135702560D01*
X61014683Y-135746838D01*
X60798559Y-135885910D01*
X60653569Y-136098110D01*
X60602560Y-136350000D01*
X60602560Y-136512385D01*
X60529611Y-136336271D01*
X60299016Y-136280590D01*
X59579605Y-137000000D01*
X60299016Y-137719410D01*
X60529611Y-137663729D01*
X60602560Y-137454098D01*
X60602560Y-137650000D01*
X60646838Y-137885317D01*
X60785910Y-138101441D01*
X60998110Y-138246431D01*
X61250000Y-138297440D01*
X62550000Y-138297440D01*
X62785317Y-138253162D01*
X62968946Y-138135000D01*
X63305000Y-138135000D01*
X63305000Y-140799591D01*
X63248559Y-140835910D01*
X63103569Y-141048110D01*
X63052560Y-141300000D01*
X63052560Y-142700000D01*
X63096838Y-142935317D01*
X63235910Y-143151441D01*
X63265000Y-143171317D01*
X63265000Y-145115000D01*
X63236484Y-145115000D01*
X62987073Y-144865154D01*
X62386547Y-144615794D01*
X61736306Y-144615226D01*
X61135345Y-144863538D01*
X60675154Y-145322927D01*
X60425794Y-145923453D01*
X60425226Y-146573694D01*
X60673538Y-147174655D01*
X61132927Y-147634846D01*
X61733453Y-147884206D01*
X62383694Y-147884774D01*
X62984655Y-147636462D01*
X63236556Y-147385000D01*
X63265000Y-147385000D01*
X63265000Y-149551000D01*
X60694089Y-149551000D01*
X60669915Y-149507000D01*
X59527000Y-149507000D01*
X59527000Y-149527000D01*
X59273000Y-149527000D01*
X59273000Y-149507000D01*
X58130085Y-149507000D01*
X58008096Y-149729039D01*
X58093499Y-149935233D01*
X58083006Y-149950590D01*
X58073000Y-150000000D01*
X58073000Y-151330620D01*
X58046120Y-151370849D01*
X57936887Y-151920000D01*
X58046120Y-152469151D01*
X58073000Y-152509380D01*
X58073000Y-153954258D01*
X58008096Y-154110961D01*
X58073000Y-154229096D01*
X58073000Y-154690904D01*
X58008096Y-154809039D01*
X58073000Y-154965742D01*
X58073000Y-155846494D01*
X58003569Y-155948110D01*
X57952560Y-156200000D01*
X57952560Y-157800000D01*
X57996838Y-158035317D01*
X58135910Y-158251441D01*
X58265000Y-158339644D01*
X58265000Y-165398902D01*
X57760543Y-165902479D01*
X57465337Y-166613416D01*
X57464665Y-167383207D01*
X56334665Y-167383207D01*
X56335335Y-166616793D01*
X56041370Y-165905342D01*
X55535000Y-165398087D01*
X55535000Y-155500000D01*
X55527000Y-155459781D01*
X55527000Y-149030961D01*
X58008096Y-149030961D01*
X58130085Y-149253000D01*
X59273000Y-149253000D01*
X59273000Y-148109371D01*
X59527000Y-148109371D01*
X59527000Y-149253000D01*
X60669915Y-149253000D01*
X60791904Y-149030961D01*
X60631041Y-148642577D01*
X60255134Y-148227611D01*
X59749041Y-147988086D01*
X59527000Y-148109371D01*
X59273000Y-148109371D01*
X59050959Y-147988086D01*
X58544866Y-148227611D01*
X58168959Y-148642577D01*
X58008096Y-149030961D01*
X55527000Y-149030961D01*
X55527000Y-149000000D01*
X55524042Y-148972748D01*
X55503666Y-148926636D01*
X55466956Y-148892084D01*
X55457694Y-148888645D01*
X55535000Y-148500000D01*
X55535000Y-143178384D01*
X55778533Y-142935275D01*
X58644331Y-142935275D01*
X58706169Y-143171042D01*
X59207122Y-143347419D01*
X59737440Y-143318664D01*
X60093831Y-143171042D01*
X60155669Y-142935275D01*
X59400000Y-142179605D01*
X58644331Y-142935275D01*
X55778533Y-142935275D01*
X55784846Y-142928973D01*
X56034206Y-142328447D01*
X56034661Y-141807122D01*
X58052581Y-141807122D01*
X58081336Y-142337440D01*
X58228958Y-142693831D01*
X58464725Y-142755669D01*
X59220395Y-142000000D01*
X59579605Y-142000000D01*
X60335275Y-142755669D01*
X60571042Y-142693831D01*
X60747419Y-142192878D01*
X60718664Y-141662560D01*
X60571042Y-141306169D01*
X60335275Y-141244331D01*
X59579605Y-142000000D01*
X59220395Y-142000000D01*
X58464725Y-141244331D01*
X58228958Y-141306169D01*
X58052581Y-141807122D01*
X56034661Y-141807122D01*
X56034774Y-141678206D01*
X55786462Y-141077245D01*
X55773964Y-141064725D01*
X58644331Y-141064725D01*
X59400000Y-141820395D01*
X60155669Y-141064725D01*
X60093831Y-140828958D01*
X59592878Y-140652581D01*
X59062560Y-140681336D01*
X58706169Y-140828958D01*
X58644331Y-141064725D01*
X55773964Y-141064725D01*
X55327073Y-140617054D01*
X54726547Y-140367694D01*
X54076306Y-140367126D01*
X53475345Y-140615438D01*
X53015154Y-141074827D01*
X52765794Y-141675353D01*
X52765226Y-142325594D01*
X52773000Y-142344409D01*
X52773000Y-142873000D01*
X51900000Y-142873000D01*
X51853841Y-142881685D01*
X51811447Y-142908965D01*
X51783006Y-142950590D01*
X51773000Y-143000000D01*
X51773000Y-143365000D01*
X50328380Y-143365000D01*
X50077073Y-143113254D01*
X49476547Y-142863894D01*
X48826306Y-142863326D01*
X48225345Y-143111638D01*
X47765154Y-143571027D01*
X47515794Y-144171553D01*
X47515226Y-144821794D01*
X47523000Y-144840609D01*
X47523000Y-149155459D01*
X47515794Y-149172813D01*
X47515226Y-149823054D01*
X47763538Y-150424015D01*
X48088800Y-150749845D01*
X47973444Y-150865000D01*
X46870133Y-150865000D01*
X46535000Y-150529868D01*
X46535000Y-138970132D01*
X47207692Y-138297440D01*
X47550000Y-138297440D01*
X47785317Y-138253162D01*
X48001441Y-138114090D01*
X48146431Y-137901890D01*
X48147012Y-137899016D01*
X48680590Y-137899016D01*
X48736271Y-138129611D01*
X49219078Y-138297622D01*
X49729428Y-138268083D01*
X50007738Y-138152803D01*
X53427443Y-138152803D01*
X53526042Y-138419605D01*
X54135582Y-138646041D01*
X54785377Y-138621981D01*
X55273958Y-138419605D01*
X55372557Y-138152803D01*
X54400000Y-137180245D01*
X53427443Y-138152803D01*
X50007738Y-138152803D01*
X50063729Y-138129611D01*
X50119410Y-137899016D01*
X49400000Y-137179605D01*
X48680590Y-137899016D01*
X48147012Y-137899016D01*
X48197440Y-137650000D01*
X48197440Y-137487615D01*
X48270389Y-137663729D01*
X48500984Y-137719410D01*
X49220395Y-137000000D01*
X49579605Y-137000000D01*
X50299016Y-137719410D01*
X50529611Y-137663729D01*
X50697622Y-137180922D01*
X50671883Y-136736222D01*
X52754599Y-136736222D01*
X52778659Y-137386017D01*
X52981035Y-137874598D01*
X53247837Y-137973197D01*
X54220395Y-137000640D01*
X54579605Y-137000640D01*
X55552163Y-137973197D01*
X55752891Y-137899016D01*
X58680590Y-137899016D01*
X58736271Y-138129611D01*
X59219078Y-138297622D01*
X59729428Y-138268083D01*
X60063729Y-138129611D01*
X60119410Y-137899016D01*
X59400000Y-137179605D01*
X58680590Y-137899016D01*
X55752891Y-137899016D01*
X55818965Y-137874598D01*
X56045401Y-137265058D01*
X56028888Y-136819078D01*
X58102378Y-136819078D01*
X58131917Y-137329428D01*
X58270389Y-137663729D01*
X58500984Y-137719410D01*
X59220395Y-137000000D01*
X58500984Y-136280590D01*
X58270389Y-136336271D01*
X58102378Y-136819078D01*
X56028888Y-136819078D01*
X56021341Y-136615263D01*
X55818965Y-136126682D01*
X55749429Y-136100984D01*
X58680590Y-136100984D01*
X59400000Y-136820395D01*
X60119410Y-136100984D01*
X60063729Y-135870389D01*
X59580922Y-135702378D01*
X59070572Y-135731917D01*
X58736271Y-135870389D01*
X58680590Y-136100984D01*
X55749429Y-136100984D01*
X55552163Y-136028083D01*
X54579605Y-137000640D01*
X54220395Y-137000640D01*
X53247837Y-136028083D01*
X52981035Y-136126682D01*
X52754599Y-136736222D01*
X50671883Y-136736222D01*
X50668083Y-136670572D01*
X50529611Y-136336271D01*
X50299016Y-136280590D01*
X49579605Y-137000000D01*
X49220395Y-137000000D01*
X49206252Y-136985858D01*
X49385858Y-136806252D01*
X49400000Y-136820395D01*
X50119410Y-136100984D01*
X50063729Y-135870389D01*
X50000762Y-135848477D01*
X53427443Y-135848477D01*
X54400000Y-136821035D01*
X55372557Y-135848477D01*
X55273958Y-135581675D01*
X54664418Y-135355239D01*
X54014623Y-135379299D01*
X53526042Y-135581675D01*
X53427443Y-135848477D01*
X50000762Y-135848477D01*
X49580922Y-135702378D01*
X49070572Y-135731917D01*
X48736271Y-135870389D01*
X48680590Y-136100982D01*
X48565130Y-135985522D01*
X48535000Y-136015652D01*
X48535000Y-130170132D01*
X48588188Y-130116944D01*
X48777910Y-130243713D01*
X49400000Y-130367454D01*
X50022090Y-130243713D01*
X50549473Y-129891327D01*
X50901859Y-129363944D01*
X51025600Y-128741854D01*
X51025600Y-127827000D01*
X52774400Y-127827000D01*
X52774400Y-128817600D01*
X52946742Y-129430023D01*
X53340330Y-129929876D01*
X53895243Y-130241060D01*
X54021041Y-130271411D01*
X54273000Y-130151942D01*
X54273000Y-127827000D01*
X54527000Y-127827000D01*
X54527000Y-130151942D01*
X54778959Y-130271411D01*
X54904757Y-130241060D01*
X55459670Y-129929876D01*
X55853258Y-129430023D01*
X56025600Y-128817600D01*
X56025600Y-127827000D01*
X57774400Y-127827000D01*
X57774400Y-128817600D01*
X57946742Y-129430023D01*
X58340330Y-129929876D01*
X58895243Y-130241060D01*
X59021041Y-130271411D01*
X59273000Y-130151942D01*
X59273000Y-127827000D01*
X59527000Y-127827000D01*
X59527000Y-130151942D01*
X59778959Y-130271411D01*
X59904757Y-130241060D01*
X60459670Y-129929876D01*
X60853258Y-129430023D01*
X61025600Y-128817600D01*
X61025600Y-127827000D01*
X59527000Y-127827000D01*
X59273000Y-127827000D01*
X57774400Y-127827000D01*
X56025600Y-127827000D01*
X54527000Y-127827000D01*
X54273000Y-127827000D01*
X52774400Y-127827000D01*
X51025600Y-127827000D01*
X51025600Y-126658146D01*
X51010534Y-126582400D01*
X52774400Y-126582400D01*
X52774400Y-127573000D01*
X54273000Y-127573000D01*
X54273000Y-125248058D01*
X54527000Y-125248058D01*
X54527000Y-127573000D01*
X56025600Y-127573000D01*
X56025600Y-126582400D01*
X57774400Y-126582400D01*
X57774400Y-127573000D01*
X59273000Y-127573000D01*
X59273000Y-125248058D01*
X59527000Y-125248058D01*
X59527000Y-127573000D01*
X61025600Y-127573000D01*
X61025600Y-126582400D01*
X60853258Y-125969977D01*
X60459670Y-125470124D01*
X59904757Y-125158940D01*
X59778959Y-125128589D01*
X59527000Y-125248058D01*
X59273000Y-125248058D01*
X59021041Y-125128589D01*
X58895243Y-125158940D01*
X58340330Y-125470124D01*
X57946742Y-125969977D01*
X57774400Y-126582400D01*
X56025600Y-126582400D01*
X55853258Y-125969977D01*
X55459670Y-125470124D01*
X54904757Y-125158940D01*
X54778959Y-125128589D01*
X54527000Y-125248058D01*
X54273000Y-125248058D01*
X54021041Y-125128589D01*
X53895243Y-125158940D01*
X53340330Y-125470124D01*
X52946742Y-125969977D01*
X52774400Y-126582400D01*
X51010534Y-126582400D01*
X50901859Y-126036056D01*
X50549473Y-125508673D01*
X50022090Y-125156287D01*
X49400000Y-125032546D01*
X48777910Y-125156287D01*
X48250527Y-125508673D01*
X47898141Y-126036056D01*
X47774400Y-126658146D01*
X47774400Y-127720468D01*
X46597434Y-128897434D01*
X46351397Y-129265654D01*
X46265000Y-129700000D01*
X46265000Y-135702560D01*
X46250000Y-135702560D01*
X46014683Y-135746838D01*
X45798559Y-135885910D01*
X45653569Y-136098110D01*
X45602560Y-136350000D01*
X45602560Y-136692308D01*
X44597434Y-137697434D01*
X44351397Y-138065654D01*
X44265000Y-138500000D01*
X44265000Y-151000000D01*
X44351397Y-151434346D01*
X44513070Y-151676306D01*
X44597434Y-151802566D01*
X45597434Y-152802567D01*
X45965655Y-153048604D01*
X46400000Y-153135000D01*
X47973516Y-153135000D01*
X48222927Y-153384846D01*
X48823453Y-153634206D01*
X49473694Y-153634774D01*
X49521551Y-153615000D01*
X50311000Y-153615000D01*
X50311000Y-155865000D01*
X47326484Y-155865000D01*
X47077073Y-155615154D01*
X46476547Y-155365794D01*
X45826306Y-155365226D01*
X45225345Y-155613538D01*
X44973444Y-155865000D01*
X44576484Y-155865000D01*
X44327073Y-155615154D01*
X43726547Y-155365794D01*
X43076306Y-155365226D01*
X42475345Y-155613538D01*
X42015154Y-156072927D01*
X41765794Y-156673453D01*
X41765226Y-157323694D01*
X40475760Y-157323694D01*
X40510868Y-123607000D01*
X72572868Y-123607000D01*
X72523132Y-171373000D01*
X72523132Y-171373000D01*
G37*
X72523132Y-171373000D02*
X40461132Y-171373000D01*
X40475760Y-157323694D01*
X41765226Y-157323694D01*
X42013538Y-157924655D01*
X42472927Y-158384846D01*
X43073453Y-158634206D01*
X43723694Y-158634774D01*
X44324655Y-158386462D01*
X44576556Y-158135000D01*
X44973516Y-158135000D01*
X45222927Y-158384846D01*
X45823453Y-158634206D01*
X46473694Y-158634774D01*
X47074655Y-158386462D01*
X47326556Y-158135000D01*
X50917233Y-158135000D01*
X51202736Y-158325767D01*
X51622903Y-158409344D01*
X51654590Y-158430994D01*
X51704000Y-158441000D01*
X53265000Y-158441000D01*
X53265000Y-165398902D01*
X52798087Y-165865000D01*
X50326484Y-165865000D01*
X50077073Y-165615154D01*
X49476547Y-165365794D01*
X48826306Y-165365226D01*
X48225345Y-165613538D01*
X47973444Y-165865000D01*
X47166762Y-165865000D01*
X47077073Y-165775154D01*
X46476547Y-165525794D01*
X45826306Y-165525226D01*
X45225345Y-165773538D01*
X44973444Y-166025000D01*
X44576484Y-166025000D01*
X44327073Y-165775154D01*
X43726547Y-165525794D01*
X43076306Y-165525226D01*
X42475345Y-165773538D01*
X42015154Y-166232927D01*
X41765794Y-166833453D01*
X41765226Y-167483694D01*
X42013538Y-168084655D01*
X42472927Y-168544846D01*
X43073453Y-168794206D01*
X43723694Y-168794774D01*
X44324655Y-168546462D01*
X44576556Y-168295000D01*
X44973516Y-168295000D01*
X45222927Y-168544846D01*
X45823453Y-168794206D01*
X46473694Y-168794774D01*
X47074655Y-168546462D01*
X47486835Y-168135000D01*
X47973516Y-168135000D01*
X48222927Y-168384846D01*
X48823453Y-168634206D01*
X49473694Y-168634774D01*
X50074655Y-168386462D01*
X50326556Y-168135000D01*
X52798902Y-168135000D01*
X53302479Y-168639457D01*
X54013416Y-168934663D01*
X54783207Y-168935335D01*
X55494658Y-168641370D01*
X56039457Y-168097521D01*
X56334663Y-167386584D01*
X56334665Y-167383207D01*
X57464665Y-167383207D01*
X57758630Y-168094658D01*
X58302479Y-168639457D01*
X59013416Y-168934663D01*
X59783207Y-168935335D01*
X60494658Y-168641370D01*
X60801563Y-168335000D01*
X62969832Y-168335000D01*
X63102459Y-168533491D01*
X63697776Y-168931269D01*
X64400000Y-169070950D01*
X65102224Y-168931269D01*
X65697541Y-168533491D01*
X66095319Y-167938174D01*
X66235000Y-167235950D01*
X66235000Y-167164050D01*
X66095319Y-166461826D01*
X65697541Y-165866509D01*
X65102224Y-165468731D01*
X64400000Y-165329050D01*
X63697776Y-165468731D01*
X63102459Y-165866509D01*
X62969832Y-166065000D01*
X61107339Y-166065000D01*
X61041370Y-165905342D01*
X60535000Y-165398087D01*
X60535000Y-158339018D01*
X60651441Y-158264090D01*
X60796431Y-158051890D01*
X60847440Y-157800000D01*
X60847440Y-156200000D01*
X60833704Y-156127000D01*
X62720183Y-156127000D01*
X62735910Y-156151441D01*
X62948110Y-156296431D01*
X63200000Y-156347440D01*
X65600000Y-156347440D01*
X65835317Y-156303162D01*
X66051441Y-156164090D01*
X66196431Y-155951890D01*
X66247440Y-155700000D01*
X66247440Y-153361000D01*
X67452000Y-153361000D01*
X67498159Y-153352315D01*
X67540553Y-153325035D01*
X67568994Y-153283410D01*
X67579000Y-153234000D01*
X67579000Y-153177185D01*
X67593831Y-153171042D01*
X67655669Y-152935275D01*
X66900000Y-152179605D01*
X66885858Y-152193748D01*
X66706252Y-152014142D01*
X66720395Y-152000000D01*
X67079605Y-152000000D01*
X67835275Y-152755669D01*
X68071042Y-152693831D01*
X68247419Y-152192878D01*
X68218664Y-151662560D01*
X68071042Y-151306169D01*
X67835275Y-151244331D01*
X67079605Y-152000000D01*
X66720395Y-152000000D01*
X65964725Y-151244331D01*
X65910230Y-151258624D01*
X65716331Y-151064725D01*
X66144331Y-151064725D01*
X66900000Y-151820395D01*
X67655669Y-151064725D01*
X67593831Y-150828958D01*
X67092878Y-150652581D01*
X66562560Y-150681336D01*
X66206169Y-150828958D01*
X66144331Y-151064725D01*
X65716331Y-151064725D01*
X65535000Y-150883394D01*
X65535000Y-143174669D01*
X65551441Y-143164090D01*
X65696431Y-142951890D01*
X65747440Y-142700000D01*
X65747440Y-141300000D01*
X65703162Y-141064683D01*
X65575000Y-140865514D01*
X65575000Y-129853123D01*
X65901859Y-129363944D01*
X66025600Y-128741854D01*
X66025600Y-126658146D01*
X65901859Y-126036056D01*
X65549473Y-125508673D01*
X65022090Y-125156287D01*
X64400000Y-125032546D01*
X63777910Y-125156287D01*
X63250527Y-125508673D01*
X62898141Y-126036056D01*
X62774400Y-126658146D01*
X62774400Y-128741854D01*
X62898141Y-129363944D01*
X63250527Y-129891327D01*
X63305000Y-129927725D01*
X63305000Y-135865000D01*
X62964975Y-135865000D01*
X62801890Y-135753569D01*
X62550000Y-135702560D01*
X61250000Y-135702560D01*
X61014683Y-135746838D01*
X60798559Y-135885910D01*
X60653569Y-136098110D01*
X60602560Y-136350000D01*
X60602560Y-136512385D01*
X60529611Y-136336271D01*
X60299016Y-136280590D01*
X59579605Y-137000000D01*
X60299016Y-137719410D01*
X60529611Y-137663729D01*
X60602560Y-137454098D01*
X60602560Y-137650000D01*
X60646838Y-137885317D01*
X60785910Y-138101441D01*
X60998110Y-138246431D01*
X61250000Y-138297440D01*
X62550000Y-138297440D01*
X62785317Y-138253162D01*
X62968946Y-138135000D01*
X63305000Y-138135000D01*
X63305000Y-140799591D01*
X63248559Y-140835910D01*
X63103569Y-141048110D01*
X63052560Y-141300000D01*
X63052560Y-142700000D01*
X63096838Y-142935317D01*
X63235910Y-143151441D01*
X63265000Y-143171317D01*
X63265000Y-145115000D01*
X63236484Y-145115000D01*
X62987073Y-144865154D01*
X62386547Y-144615794D01*
X61736306Y-144615226D01*
X61135345Y-144863538D01*
X60675154Y-145322927D01*
X60425794Y-145923453D01*
X60425226Y-146573694D01*
X60673538Y-147174655D01*
X61132927Y-147634846D01*
X61733453Y-147884206D01*
X62383694Y-147884774D01*
X62984655Y-147636462D01*
X63236556Y-147385000D01*
X63265000Y-147385000D01*
X63265000Y-149551000D01*
X60694089Y-149551000D01*
X60669915Y-149507000D01*
X59527000Y-149507000D01*
X59527000Y-149527000D01*
X59273000Y-149527000D01*
X59273000Y-149507000D01*
X58130085Y-149507000D01*
X58008096Y-149729039D01*
X58093499Y-149935233D01*
X58083006Y-149950590D01*
X58073000Y-150000000D01*
X58073000Y-151330620D01*
X58046120Y-151370849D01*
X57936887Y-151920000D01*
X58046120Y-152469151D01*
X58073000Y-152509380D01*
X58073000Y-153954258D01*
X58008096Y-154110961D01*
X58073000Y-154229096D01*
X58073000Y-154690904D01*
X58008096Y-154809039D01*
X58073000Y-154965742D01*
X58073000Y-155846494D01*
X58003569Y-155948110D01*
X57952560Y-156200000D01*
X57952560Y-157800000D01*
X57996838Y-158035317D01*
X58135910Y-158251441D01*
X58265000Y-158339644D01*
X58265000Y-165398902D01*
X57760543Y-165902479D01*
X57465337Y-166613416D01*
X57464665Y-167383207D01*
X56334665Y-167383207D01*
X56335335Y-166616793D01*
X56041370Y-165905342D01*
X55535000Y-165398087D01*
X55535000Y-155500000D01*
X55527000Y-155459781D01*
X55527000Y-149030961D01*
X58008096Y-149030961D01*
X58130085Y-149253000D01*
X59273000Y-149253000D01*
X59273000Y-148109371D01*
X59527000Y-148109371D01*
X59527000Y-149253000D01*
X60669915Y-149253000D01*
X60791904Y-149030961D01*
X60631041Y-148642577D01*
X60255134Y-148227611D01*
X59749041Y-147988086D01*
X59527000Y-148109371D01*
X59273000Y-148109371D01*
X59050959Y-147988086D01*
X58544866Y-148227611D01*
X58168959Y-148642577D01*
X58008096Y-149030961D01*
X55527000Y-149030961D01*
X55527000Y-149000000D01*
X55524042Y-148972748D01*
X55503666Y-148926636D01*
X55466956Y-148892084D01*
X55457694Y-148888645D01*
X55535000Y-148500000D01*
X55535000Y-143178384D01*
X55778533Y-142935275D01*
X58644331Y-142935275D01*
X58706169Y-143171042D01*
X59207122Y-143347419D01*
X59737440Y-143318664D01*
X60093831Y-143171042D01*
X60155669Y-142935275D01*
X59400000Y-142179605D01*
X58644331Y-142935275D01*
X55778533Y-142935275D01*
X55784846Y-142928973D01*
X56034206Y-142328447D01*
X56034661Y-141807122D01*
X58052581Y-141807122D01*
X58081336Y-142337440D01*
X58228958Y-142693831D01*
X58464725Y-142755669D01*
X59220395Y-142000000D01*
X59579605Y-142000000D01*
X60335275Y-142755669D01*
X60571042Y-142693831D01*
X60747419Y-142192878D01*
X60718664Y-141662560D01*
X60571042Y-141306169D01*
X60335275Y-141244331D01*
X59579605Y-142000000D01*
X59220395Y-142000000D01*
X58464725Y-141244331D01*
X58228958Y-141306169D01*
X58052581Y-141807122D01*
X56034661Y-141807122D01*
X56034774Y-141678206D01*
X55786462Y-141077245D01*
X55773964Y-141064725D01*
X58644331Y-141064725D01*
X59400000Y-141820395D01*
X60155669Y-141064725D01*
X60093831Y-140828958D01*
X59592878Y-140652581D01*
X59062560Y-140681336D01*
X58706169Y-140828958D01*
X58644331Y-141064725D01*
X55773964Y-141064725D01*
X55327073Y-140617054D01*
X54726547Y-140367694D01*
X54076306Y-140367126D01*
X53475345Y-140615438D01*
X53015154Y-141074827D01*
X52765794Y-141675353D01*
X52765226Y-142325594D01*
X52773000Y-142344409D01*
X52773000Y-142873000D01*
X51900000Y-142873000D01*
X51853841Y-142881685D01*
X51811447Y-142908965D01*
X51783006Y-142950590D01*
X51773000Y-143000000D01*
X51773000Y-143365000D01*
X50328380Y-143365000D01*
X50077073Y-143113254D01*
X49476547Y-142863894D01*
X48826306Y-142863326D01*
X48225345Y-143111638D01*
X47765154Y-143571027D01*
X47515794Y-144171553D01*
X47515226Y-144821794D01*
X47523000Y-144840609D01*
X47523000Y-149155459D01*
X47515794Y-149172813D01*
X47515226Y-149823054D01*
X47763538Y-150424015D01*
X48088800Y-150749845D01*
X47973444Y-150865000D01*
X46870133Y-150865000D01*
X46535000Y-150529868D01*
X46535000Y-138970132D01*
X47207692Y-138297440D01*
X47550000Y-138297440D01*
X47785317Y-138253162D01*
X48001441Y-138114090D01*
X48146431Y-137901890D01*
X48147012Y-137899016D01*
X48680590Y-137899016D01*
X48736271Y-138129611D01*
X49219078Y-138297622D01*
X49729428Y-138268083D01*
X50007738Y-138152803D01*
X53427443Y-138152803D01*
X53526042Y-138419605D01*
X54135582Y-138646041D01*
X54785377Y-138621981D01*
X55273958Y-138419605D01*
X55372557Y-138152803D01*
X54400000Y-137180245D01*
X53427443Y-138152803D01*
X50007738Y-138152803D01*
X50063729Y-138129611D01*
X50119410Y-137899016D01*
X49400000Y-137179605D01*
X48680590Y-137899016D01*
X48147012Y-137899016D01*
X48197440Y-137650000D01*
X48197440Y-137487615D01*
X48270389Y-137663729D01*
X48500984Y-137719410D01*
X49220395Y-137000000D01*
X49579605Y-137000000D01*
X50299016Y-137719410D01*
X50529611Y-137663729D01*
X50697622Y-137180922D01*
X50671883Y-136736222D01*
X52754599Y-136736222D01*
X52778659Y-137386017D01*
X52981035Y-137874598D01*
X53247837Y-137973197D01*
X54220395Y-137000640D01*
X54579605Y-137000640D01*
X55552163Y-137973197D01*
X55752891Y-137899016D01*
X58680590Y-137899016D01*
X58736271Y-138129611D01*
X59219078Y-138297622D01*
X59729428Y-138268083D01*
X60063729Y-138129611D01*
X60119410Y-137899016D01*
X59400000Y-137179605D01*
X58680590Y-137899016D01*
X55752891Y-137899016D01*
X55818965Y-137874598D01*
X56045401Y-137265058D01*
X56028888Y-136819078D01*
X58102378Y-136819078D01*
X58131917Y-137329428D01*
X58270389Y-137663729D01*
X58500984Y-137719410D01*
X59220395Y-137000000D01*
X58500984Y-136280590D01*
X58270389Y-136336271D01*
X58102378Y-136819078D01*
X56028888Y-136819078D01*
X56021341Y-136615263D01*
X55818965Y-136126682D01*
X55749429Y-136100984D01*
X58680590Y-136100984D01*
X59400000Y-136820395D01*
X60119410Y-136100984D01*
X60063729Y-135870389D01*
X59580922Y-135702378D01*
X59070572Y-135731917D01*
X58736271Y-135870389D01*
X58680590Y-136100984D01*
X55749429Y-136100984D01*
X55552163Y-136028083D01*
X54579605Y-137000640D01*
X54220395Y-137000640D01*
X53247837Y-136028083D01*
X52981035Y-136126682D01*
X52754599Y-136736222D01*
X50671883Y-136736222D01*
X50668083Y-136670572D01*
X50529611Y-136336271D01*
X50299016Y-136280590D01*
X49579605Y-137000000D01*
X49220395Y-137000000D01*
X49206252Y-136985858D01*
X49385858Y-136806252D01*
X49400000Y-136820395D01*
X50119410Y-136100984D01*
X50063729Y-135870389D01*
X50000762Y-135848477D01*
X53427443Y-135848477D01*
X54400000Y-136821035D01*
X55372557Y-135848477D01*
X55273958Y-135581675D01*
X54664418Y-135355239D01*
X54014623Y-135379299D01*
X53526042Y-135581675D01*
X53427443Y-135848477D01*
X50000762Y-135848477D01*
X49580922Y-135702378D01*
X49070572Y-135731917D01*
X48736271Y-135870389D01*
X48680590Y-136100982D01*
X48565130Y-135985522D01*
X48535000Y-136015652D01*
X48535000Y-130170132D01*
X48588188Y-130116944D01*
X48777910Y-130243713D01*
X49400000Y-130367454D01*
X50022090Y-130243713D01*
X50549473Y-129891327D01*
X50901859Y-129363944D01*
X51025600Y-128741854D01*
X51025600Y-127827000D01*
X52774400Y-127827000D01*
X52774400Y-128817600D01*
X52946742Y-129430023D01*
X53340330Y-129929876D01*
X53895243Y-130241060D01*
X54021041Y-130271411D01*
X54273000Y-130151942D01*
X54273000Y-127827000D01*
X54527000Y-127827000D01*
X54527000Y-130151942D01*
X54778959Y-130271411D01*
X54904757Y-130241060D01*
X55459670Y-129929876D01*
X55853258Y-129430023D01*
X56025600Y-128817600D01*
X56025600Y-127827000D01*
X57774400Y-127827000D01*
X57774400Y-128817600D01*
X57946742Y-129430023D01*
X58340330Y-129929876D01*
X58895243Y-130241060D01*
X59021041Y-130271411D01*
X59273000Y-130151942D01*
X59273000Y-127827000D01*
X59527000Y-127827000D01*
X59527000Y-130151942D01*
X59778959Y-130271411D01*
X59904757Y-130241060D01*
X60459670Y-129929876D01*
X60853258Y-129430023D01*
X61025600Y-128817600D01*
X61025600Y-127827000D01*
X59527000Y-127827000D01*
X59273000Y-127827000D01*
X57774400Y-127827000D01*
X56025600Y-127827000D01*
X54527000Y-127827000D01*
X54273000Y-127827000D01*
X52774400Y-127827000D01*
X51025600Y-127827000D01*
X51025600Y-126658146D01*
X51010534Y-126582400D01*
X52774400Y-126582400D01*
X52774400Y-127573000D01*
X54273000Y-127573000D01*
X54273000Y-125248058D01*
X54527000Y-125248058D01*
X54527000Y-127573000D01*
X56025600Y-127573000D01*
X56025600Y-126582400D01*
X57774400Y-126582400D01*
X57774400Y-127573000D01*
X59273000Y-127573000D01*
X59273000Y-125248058D01*
X59527000Y-125248058D01*
X59527000Y-127573000D01*
X61025600Y-127573000D01*
X61025600Y-126582400D01*
X60853258Y-125969977D01*
X60459670Y-125470124D01*
X59904757Y-125158940D01*
X59778959Y-125128589D01*
X59527000Y-125248058D01*
X59273000Y-125248058D01*
X59021041Y-125128589D01*
X58895243Y-125158940D01*
X58340330Y-125470124D01*
X57946742Y-125969977D01*
X57774400Y-126582400D01*
X56025600Y-126582400D01*
X55853258Y-125969977D01*
X55459670Y-125470124D01*
X54904757Y-125158940D01*
X54778959Y-125128589D01*
X54527000Y-125248058D01*
X54273000Y-125248058D01*
X54021041Y-125128589D01*
X53895243Y-125158940D01*
X53340330Y-125470124D01*
X52946742Y-125969977D01*
X52774400Y-126582400D01*
X51010534Y-126582400D01*
X50901859Y-126036056D01*
X50549473Y-125508673D01*
X50022090Y-125156287D01*
X49400000Y-125032546D01*
X48777910Y-125156287D01*
X48250527Y-125508673D01*
X47898141Y-126036056D01*
X47774400Y-126658146D01*
X47774400Y-127720468D01*
X46597434Y-128897434D01*
X46351397Y-129265654D01*
X46265000Y-129700000D01*
X46265000Y-135702560D01*
X46250000Y-135702560D01*
X46014683Y-135746838D01*
X45798559Y-135885910D01*
X45653569Y-136098110D01*
X45602560Y-136350000D01*
X45602560Y-136692308D01*
X44597434Y-137697434D01*
X44351397Y-138065654D01*
X44265000Y-138500000D01*
X44265000Y-151000000D01*
X44351397Y-151434346D01*
X44513070Y-151676306D01*
X44597434Y-151802566D01*
X45597434Y-152802567D01*
X45965655Y-153048604D01*
X46400000Y-153135000D01*
X47973516Y-153135000D01*
X48222927Y-153384846D01*
X48823453Y-153634206D01*
X49473694Y-153634774D01*
X49521551Y-153615000D01*
X50311000Y-153615000D01*
X50311000Y-155865000D01*
X47326484Y-155865000D01*
X47077073Y-155615154D01*
X46476547Y-155365794D01*
X45826306Y-155365226D01*
X45225345Y-155613538D01*
X44973444Y-155865000D01*
X44576484Y-155865000D01*
X44327073Y-155615154D01*
X43726547Y-155365794D01*
X43076306Y-155365226D01*
X42475345Y-155613538D01*
X42015154Y-156072927D01*
X41765794Y-156673453D01*
X41765226Y-157323694D01*
X40475760Y-157323694D01*
X40510868Y-123607000D01*
X72572868Y-123607000D01*
X72523132Y-171373000D01*
G36*
X59527000Y-154333000D02*
X59547000Y-154333000D01*
X59547000Y-154587000D01*
X59527000Y-154587000D01*
X59527000Y-154607000D01*
X59273000Y-154607000D01*
X59273000Y-154587000D01*
X59027000Y-154587000D01*
X59027000Y-154333000D01*
X59273000Y-154333000D01*
X59273000Y-154313000D01*
X59527000Y-154313000D01*
X59527000Y-154333000D01*
X59527000Y-154333000D01*
G37*
X59527000Y-154333000D02*
X59547000Y-154333000D01*
X59547000Y-154587000D01*
X59527000Y-154587000D01*
X59527000Y-154607000D01*
X59273000Y-154607000D01*
X59273000Y-154587000D01*
X59027000Y-154587000D01*
X59027000Y-154333000D01*
X59273000Y-154333000D01*
X59273000Y-154313000D01*
X59527000Y-154313000D01*
X59527000Y-154333000D01*
G36*
X105823132Y-171473000D02*
X73761132Y-171473000D01*
X73775760Y-157423694D01*
X75065226Y-157423694D01*
X75313538Y-158024655D01*
X75772927Y-158484846D01*
X76373453Y-158734206D01*
X77023694Y-158734774D01*
X77624655Y-158486462D01*
X77876556Y-158235000D01*
X78273516Y-158235000D01*
X78522927Y-158484846D01*
X79123453Y-158734206D01*
X79773694Y-158734774D01*
X80374655Y-158486462D01*
X80626556Y-158235000D01*
X84217233Y-158235000D01*
X84502736Y-158425767D01*
X84922903Y-158509344D01*
X84954590Y-158530994D01*
X85004000Y-158541000D01*
X86565000Y-158541000D01*
X86565000Y-165498902D01*
X86098087Y-165965000D01*
X83626484Y-165965000D01*
X83377073Y-165715154D01*
X82776547Y-165465794D01*
X82126306Y-165465226D01*
X81525345Y-165713538D01*
X81273444Y-165965000D01*
X80466762Y-165965000D01*
X80377073Y-165875154D01*
X79776547Y-165625794D01*
X79126306Y-165625226D01*
X78525345Y-165873538D01*
X78273444Y-166125000D01*
X77876484Y-166125000D01*
X77627073Y-165875154D01*
X77026547Y-165625794D01*
X76376306Y-165625226D01*
X75775345Y-165873538D01*
X75315154Y-166332927D01*
X75065794Y-166933453D01*
X75065226Y-167583694D01*
X75313538Y-168184655D01*
X75772927Y-168644846D01*
X76373453Y-168894206D01*
X77023694Y-168894774D01*
X77624655Y-168646462D01*
X77876556Y-168395000D01*
X78273516Y-168395000D01*
X78522927Y-168644846D01*
X79123453Y-168894206D01*
X79773694Y-168894774D01*
X80374655Y-168646462D01*
X80786835Y-168235000D01*
X81273516Y-168235000D01*
X81522927Y-168484846D01*
X82123453Y-168734206D01*
X82773694Y-168734774D01*
X83374655Y-168486462D01*
X83626556Y-168235000D01*
X86098902Y-168235000D01*
X86602479Y-168739457D01*
X87313416Y-169034663D01*
X88083207Y-169035335D01*
X88794658Y-168741370D01*
X89339457Y-168197521D01*
X89634663Y-167486584D01*
X89634665Y-167483207D01*
X90764665Y-167483207D01*
X91058630Y-168194658D01*
X91602479Y-168739457D01*
X92313416Y-169034663D01*
X93083207Y-169035335D01*
X93794658Y-168741370D01*
X94101563Y-168435000D01*
X96269832Y-168435000D01*
X96402459Y-168633491D01*
X96997776Y-169031269D01*
X97700000Y-169170950D01*
X98402224Y-169031269D01*
X98997541Y-168633491D01*
X99395319Y-168038174D01*
X99535000Y-167335950D01*
X99535000Y-167264050D01*
X99395319Y-166561826D01*
X98997541Y-165966509D01*
X98402224Y-165568731D01*
X97700000Y-165429050D01*
X96997776Y-165568731D01*
X96402459Y-165966509D01*
X96269832Y-166165000D01*
X94407339Y-166165000D01*
X94341370Y-166005342D01*
X93835000Y-165498087D01*
X93835000Y-158439018D01*
X93951441Y-158364090D01*
X94096431Y-158151890D01*
X94147440Y-157900000D01*
X94147440Y-156300000D01*
X94133704Y-156227000D01*
X96020183Y-156227000D01*
X96035910Y-156251441D01*
X96248110Y-156396431D01*
X96500000Y-156447440D01*
X98900000Y-156447440D01*
X99135317Y-156403162D01*
X99351441Y-156264090D01*
X99496431Y-156051890D01*
X99547440Y-155800000D01*
X99547440Y-153461000D01*
X100752000Y-153461000D01*
X100798159Y-153452315D01*
X100840553Y-153425035D01*
X100868994Y-153383410D01*
X100879000Y-153334000D01*
X100879000Y-153277185D01*
X100893831Y-153271042D01*
X100955669Y-153035275D01*
X100200000Y-152279605D01*
X100185858Y-152293748D01*
X100006252Y-152114142D01*
X100020395Y-152100000D01*
X100379605Y-152100000D01*
X101135275Y-152855669D01*
X101371042Y-152793831D01*
X101547419Y-152292878D01*
X101518664Y-151762560D01*
X101371042Y-151406169D01*
X101135275Y-151344331D01*
X100379605Y-152100000D01*
X100020395Y-152100000D01*
X99264725Y-151344331D01*
X99210230Y-151358624D01*
X99016331Y-151164725D01*
X99444331Y-151164725D01*
X100200000Y-151920395D01*
X100955669Y-151164725D01*
X100893831Y-150928958D01*
X100392878Y-150752581D01*
X99862560Y-150781336D01*
X99506169Y-150928958D01*
X99444331Y-151164725D01*
X99016331Y-151164725D01*
X98835000Y-150983394D01*
X98835000Y-143274669D01*
X98851441Y-143264090D01*
X98996431Y-143051890D01*
X99047440Y-142800000D01*
X99047440Y-141400000D01*
X99003162Y-141164683D01*
X98875000Y-140965514D01*
X98875000Y-129953123D01*
X99201859Y-129463944D01*
X99325600Y-128841854D01*
X99325600Y-126758146D01*
X99201859Y-126136056D01*
X98849473Y-125608673D01*
X98322090Y-125256287D01*
X97700000Y-125132546D01*
X97077910Y-125256287D01*
X96550527Y-125608673D01*
X96198141Y-126136056D01*
X96074400Y-126758146D01*
X96074400Y-128841854D01*
X96198141Y-129463944D01*
X96550527Y-129991327D01*
X96605000Y-130027725D01*
X96605000Y-135965000D01*
X96264975Y-135965000D01*
X96101890Y-135853569D01*
X95850000Y-135802560D01*
X94550000Y-135802560D01*
X94314683Y-135846838D01*
X94098559Y-135985910D01*
X93953569Y-136198110D01*
X93902560Y-136450000D01*
X93902560Y-136612385D01*
X93829611Y-136436271D01*
X93599016Y-136380590D01*
X92879605Y-137100000D01*
X93599016Y-137819410D01*
X93829611Y-137763729D01*
X93902560Y-137554098D01*
X93902560Y-137750000D01*
X93946838Y-137985317D01*
X94085910Y-138201441D01*
X94298110Y-138346431D01*
X94550000Y-138397440D01*
X95850000Y-138397440D01*
X96085317Y-138353162D01*
X96268946Y-138235000D01*
X96605000Y-138235000D01*
X96605000Y-140899591D01*
X96548559Y-140935910D01*
X96403569Y-141148110D01*
X96352560Y-141400000D01*
X96352560Y-142800000D01*
X96396838Y-143035317D01*
X96535910Y-143251441D01*
X96565000Y-143271317D01*
X96565000Y-145215000D01*
X96536484Y-145215000D01*
X96287073Y-144965154D01*
X95686547Y-144715794D01*
X95036306Y-144715226D01*
X94435345Y-144963538D01*
X93975154Y-145422927D01*
X93725794Y-146023453D01*
X93725226Y-146673694D01*
X93973538Y-147274655D01*
X94432927Y-147734846D01*
X95033453Y-147984206D01*
X95683694Y-147984774D01*
X96284655Y-147736462D01*
X96536556Y-147485000D01*
X96565000Y-147485000D01*
X96565000Y-149651000D01*
X93994089Y-149651000D01*
X93969915Y-149607000D01*
X92827000Y-149607000D01*
X92827000Y-149627000D01*
X92573000Y-149627000D01*
X92573000Y-149607000D01*
X91430085Y-149607000D01*
X91308096Y-149829039D01*
X91393499Y-150035233D01*
X91383006Y-150050590D01*
X91373000Y-150100000D01*
X91373000Y-151430620D01*
X91346120Y-151470849D01*
X91236887Y-152020000D01*
X91346120Y-152569151D01*
X91373000Y-152609380D01*
X91373000Y-154054258D01*
X91308096Y-154210961D01*
X91373000Y-154329096D01*
X91373000Y-154790904D01*
X91308096Y-154909039D01*
X91373000Y-155065742D01*
X91373000Y-155946494D01*
X91303569Y-156048110D01*
X91252560Y-156300000D01*
X91252560Y-157900000D01*
X91296838Y-158135317D01*
X91435910Y-158351441D01*
X91565000Y-158439644D01*
X91565000Y-165498902D01*
X91060543Y-166002479D01*
X90765337Y-166713416D01*
X90764665Y-167483207D01*
X89634665Y-167483207D01*
X89635335Y-166716793D01*
X89341370Y-166005342D01*
X88835000Y-165498087D01*
X88835000Y-155600000D01*
X88827000Y-155559781D01*
X88827000Y-149130961D01*
X91308096Y-149130961D01*
X91430085Y-149353000D01*
X92573000Y-149353000D01*
X92573000Y-148209371D01*
X92827000Y-148209371D01*
X92827000Y-149353000D01*
X93969915Y-149353000D01*
X94091904Y-149130961D01*
X93931041Y-148742577D01*
X93555134Y-148327611D01*
X93049041Y-148088086D01*
X92827000Y-148209371D01*
X92573000Y-148209371D01*
X92350959Y-148088086D01*
X91844866Y-148327611D01*
X91468959Y-148742577D01*
X91308096Y-149130961D01*
X88827000Y-149130961D01*
X88827000Y-149100000D01*
X88824042Y-149072748D01*
X88803666Y-149026636D01*
X88766956Y-148992084D01*
X88757694Y-148988645D01*
X88835000Y-148600000D01*
X88835000Y-143278384D01*
X89078533Y-143035275D01*
X91944331Y-143035275D01*
X92006169Y-143271042D01*
X92507122Y-143447419D01*
X93037440Y-143418664D01*
X93393831Y-143271042D01*
X93455669Y-143035275D01*
X92700000Y-142279605D01*
X91944331Y-143035275D01*
X89078533Y-143035275D01*
X89084846Y-143028973D01*
X89334206Y-142428447D01*
X89334661Y-141907122D01*
X91352581Y-141907122D01*
X91381336Y-142437440D01*
X91528958Y-142793831D01*
X91764725Y-142855669D01*
X92520395Y-142100000D01*
X92879605Y-142100000D01*
X93635275Y-142855669D01*
X93871042Y-142793831D01*
X94047419Y-142292878D01*
X94018664Y-141762560D01*
X93871042Y-141406169D01*
X93635275Y-141344331D01*
X92879605Y-142100000D01*
X92520395Y-142100000D01*
X91764725Y-141344331D01*
X91528958Y-141406169D01*
X91352581Y-141907122D01*
X89334661Y-141907122D01*
X89334774Y-141778206D01*
X89086462Y-141177245D01*
X89073964Y-141164725D01*
X91944331Y-141164725D01*
X92700000Y-141920395D01*
X93455669Y-141164725D01*
X93393831Y-140928958D01*
X92892878Y-140752581D01*
X92362560Y-140781336D01*
X92006169Y-140928958D01*
X91944331Y-141164725D01*
X89073964Y-141164725D01*
X88627073Y-140717054D01*
X88026547Y-140467694D01*
X87376306Y-140467126D01*
X86775345Y-140715438D01*
X86315154Y-141174827D01*
X86065794Y-141775353D01*
X86065226Y-142425594D01*
X86073000Y-142444409D01*
X86073000Y-142973000D01*
X85200000Y-142973000D01*
X85153841Y-142981685D01*
X85111447Y-143008965D01*
X85083006Y-143050590D01*
X85073000Y-143100000D01*
X85073000Y-143465000D01*
X83628380Y-143465000D01*
X83377073Y-143213254D01*
X82776547Y-142963894D01*
X82126306Y-142963326D01*
X81525345Y-143211638D01*
X81065154Y-143671027D01*
X80815794Y-144271553D01*
X80815226Y-144921794D01*
X80823000Y-144940609D01*
X80823000Y-149255459D01*
X80815794Y-149272813D01*
X80815226Y-149923054D01*
X81063538Y-150524015D01*
X81388800Y-150849845D01*
X81273444Y-150965000D01*
X80170133Y-150965000D01*
X79835000Y-150629868D01*
X79835000Y-139070132D01*
X80507692Y-138397440D01*
X80850000Y-138397440D01*
X81085317Y-138353162D01*
X81301441Y-138214090D01*
X81446431Y-138001890D01*
X81447012Y-137999016D01*
X81980590Y-137999016D01*
X82036271Y-138229611D01*
X82519078Y-138397622D01*
X83029428Y-138368083D01*
X83307738Y-138252803D01*
X86727443Y-138252803D01*
X86826042Y-138519605D01*
X87435582Y-138746041D01*
X88085377Y-138721981D01*
X88573958Y-138519605D01*
X88672557Y-138252803D01*
X87700000Y-137280245D01*
X86727443Y-138252803D01*
X83307738Y-138252803D01*
X83363729Y-138229611D01*
X83419410Y-137999016D01*
X82700000Y-137279605D01*
X81980590Y-137999016D01*
X81447012Y-137999016D01*
X81497440Y-137750000D01*
X81497440Y-137587615D01*
X81570389Y-137763729D01*
X81800984Y-137819410D01*
X82520395Y-137100000D01*
X82879605Y-137100000D01*
X83599016Y-137819410D01*
X83829611Y-137763729D01*
X83997622Y-137280922D01*
X83971883Y-136836222D01*
X86054599Y-136836222D01*
X86078659Y-137486017D01*
X86281035Y-137974598D01*
X86547837Y-138073197D01*
X87520395Y-137100640D01*
X87879605Y-137100640D01*
X88852163Y-138073197D01*
X89052891Y-137999016D01*
X91980590Y-137999016D01*
X92036271Y-138229611D01*
X92519078Y-138397622D01*
X93029428Y-138368083D01*
X93363729Y-138229611D01*
X93419410Y-137999016D01*
X92700000Y-137279605D01*
X91980590Y-137999016D01*
X89052891Y-137999016D01*
X89118965Y-137974598D01*
X89345401Y-137365058D01*
X89328888Y-136919078D01*
X91402378Y-136919078D01*
X91431917Y-137429428D01*
X91570389Y-137763729D01*
X91800984Y-137819410D01*
X92520395Y-137100000D01*
X91800984Y-136380590D01*
X91570389Y-136436271D01*
X91402378Y-136919078D01*
X89328888Y-136919078D01*
X89321341Y-136715263D01*
X89118965Y-136226682D01*
X89049429Y-136200984D01*
X91980590Y-136200984D01*
X92700000Y-136920395D01*
X93419410Y-136200984D01*
X93363729Y-135970389D01*
X92880922Y-135802378D01*
X92370572Y-135831917D01*
X92036271Y-135970389D01*
X91980590Y-136200984D01*
X89049429Y-136200984D01*
X88852163Y-136128083D01*
X87879605Y-137100640D01*
X87520395Y-137100640D01*
X86547837Y-136128083D01*
X86281035Y-136226682D01*
X86054599Y-136836222D01*
X83971883Y-136836222D01*
X83968083Y-136770572D01*
X83829611Y-136436271D01*
X83599016Y-136380590D01*
X82879605Y-137100000D01*
X82520395Y-137100000D01*
X82506252Y-137085858D01*
X82685858Y-136906252D01*
X82700000Y-136920395D01*
X83419410Y-136200984D01*
X83363729Y-135970389D01*
X83300762Y-135948477D01*
X86727443Y-135948477D01*
X87700000Y-136921035D01*
X88672557Y-135948477D01*
X88573958Y-135681675D01*
X87964418Y-135455239D01*
X87314623Y-135479299D01*
X86826042Y-135681675D01*
X86727443Y-135948477D01*
X83300762Y-135948477D01*
X82880922Y-135802378D01*
X82370572Y-135831917D01*
X82036271Y-135970389D01*
X81980590Y-136200982D01*
X81865130Y-136085522D01*
X81835000Y-136115652D01*
X81835000Y-130270132D01*
X81888188Y-130216944D01*
X82077910Y-130343713D01*
X82700000Y-130467454D01*
X83322090Y-130343713D01*
X83849473Y-129991327D01*
X84201859Y-129463944D01*
X84325600Y-128841854D01*
X84325600Y-127927000D01*
X86074400Y-127927000D01*
X86074400Y-128917600D01*
X86246742Y-129530023D01*
X86640330Y-130029876D01*
X87195243Y-130341060D01*
X87321041Y-130371411D01*
X87573000Y-130251942D01*
X87573000Y-127927000D01*
X87827000Y-127927000D01*
X87827000Y-130251942D01*
X88078959Y-130371411D01*
X88204757Y-130341060D01*
X88759670Y-130029876D01*
X89153258Y-129530023D01*
X89325600Y-128917600D01*
X89325600Y-127927000D01*
X91074400Y-127927000D01*
X91074400Y-128917600D01*
X91246742Y-129530023D01*
X91640330Y-130029876D01*
X92195243Y-130341060D01*
X92321041Y-130371411D01*
X92573000Y-130251942D01*
X92573000Y-127927000D01*
X92827000Y-127927000D01*
X92827000Y-130251942D01*
X93078959Y-130371411D01*
X93204757Y-130341060D01*
X93759670Y-130029876D01*
X94153258Y-129530023D01*
X94325600Y-128917600D01*
X94325600Y-127927000D01*
X92827000Y-127927000D01*
X92573000Y-127927000D01*
X91074400Y-127927000D01*
X89325600Y-127927000D01*
X87827000Y-127927000D01*
X87573000Y-127927000D01*
X86074400Y-127927000D01*
X84325600Y-127927000D01*
X84325600Y-126758146D01*
X84310534Y-126682400D01*
X86074400Y-126682400D01*
X86074400Y-127673000D01*
X87573000Y-127673000D01*
X87573000Y-125348058D01*
X87827000Y-125348058D01*
X87827000Y-127673000D01*
X89325600Y-127673000D01*
X89325600Y-126682400D01*
X91074400Y-126682400D01*
X91074400Y-127673000D01*
X92573000Y-127673000D01*
X92573000Y-125348058D01*
X92827000Y-125348058D01*
X92827000Y-127673000D01*
X94325600Y-127673000D01*
X94325600Y-126682400D01*
X94153258Y-126069977D01*
X93759670Y-125570124D01*
X93204757Y-125258940D01*
X93078959Y-125228589D01*
X92827000Y-125348058D01*
X92573000Y-125348058D01*
X92321041Y-125228589D01*
X92195243Y-125258940D01*
X91640330Y-125570124D01*
X91246742Y-126069977D01*
X91074400Y-126682400D01*
X89325600Y-126682400D01*
X89153258Y-126069977D01*
X88759670Y-125570124D01*
X88204757Y-125258940D01*
X88078959Y-125228589D01*
X87827000Y-125348058D01*
X87573000Y-125348058D01*
X87321041Y-125228589D01*
X87195243Y-125258940D01*
X86640330Y-125570124D01*
X86246742Y-126069977D01*
X86074400Y-126682400D01*
X84310534Y-126682400D01*
X84201859Y-126136056D01*
X83849473Y-125608673D01*
X83322090Y-125256287D01*
X82700000Y-125132546D01*
X82077910Y-125256287D01*
X81550527Y-125608673D01*
X81198141Y-126136056D01*
X81074400Y-126758146D01*
X81074400Y-127820468D01*
X79897434Y-128997434D01*
X79651397Y-129365654D01*
X79565000Y-129800000D01*
X79565000Y-135802560D01*
X79550000Y-135802560D01*
X79314683Y-135846838D01*
X79098559Y-135985910D01*
X78953569Y-136198110D01*
X78902560Y-136450000D01*
X78902560Y-136792308D01*
X77897434Y-137797434D01*
X77651397Y-138165654D01*
X77565000Y-138600000D01*
X77565000Y-151100000D01*
X77651397Y-151534346D01*
X77813070Y-151776306D01*
X77897434Y-151902566D01*
X78897434Y-152902567D01*
X79265655Y-153148604D01*
X79700000Y-153235000D01*
X81273516Y-153235000D01*
X81522927Y-153484846D01*
X82123453Y-153734206D01*
X82773694Y-153734774D01*
X82821551Y-153715000D01*
X83611000Y-153715000D01*
X83611000Y-155965000D01*
X80626484Y-155965000D01*
X80377073Y-155715154D01*
X79776547Y-155465794D01*
X79126306Y-155465226D01*
X78525345Y-155713538D01*
X78273444Y-155965000D01*
X77876484Y-155965000D01*
X77627073Y-155715154D01*
X77026547Y-155465794D01*
X76376306Y-155465226D01*
X75775345Y-155713538D01*
X75315154Y-156172927D01*
X75065794Y-156773453D01*
X75065226Y-157423694D01*
X73775760Y-157423694D01*
X73810868Y-123707000D01*
X105872868Y-123707000D01*
X105823132Y-171473000D01*
X105823132Y-171473000D01*
G37*
X105823132Y-171473000D02*
X73761132Y-171473000D01*
X73775760Y-157423694D01*
X75065226Y-157423694D01*
X75313538Y-158024655D01*
X75772927Y-158484846D01*
X76373453Y-158734206D01*
X77023694Y-158734774D01*
X77624655Y-158486462D01*
X77876556Y-158235000D01*
X78273516Y-158235000D01*
X78522927Y-158484846D01*
X79123453Y-158734206D01*
X79773694Y-158734774D01*
X80374655Y-158486462D01*
X80626556Y-158235000D01*
X84217233Y-158235000D01*
X84502736Y-158425767D01*
X84922903Y-158509344D01*
X84954590Y-158530994D01*
X85004000Y-158541000D01*
X86565000Y-158541000D01*
X86565000Y-165498902D01*
X86098087Y-165965000D01*
X83626484Y-165965000D01*
X83377073Y-165715154D01*
X82776547Y-165465794D01*
X82126306Y-165465226D01*
X81525345Y-165713538D01*
X81273444Y-165965000D01*
X80466762Y-165965000D01*
X80377073Y-165875154D01*
X79776547Y-165625794D01*
X79126306Y-165625226D01*
X78525345Y-165873538D01*
X78273444Y-166125000D01*
X77876484Y-166125000D01*
X77627073Y-165875154D01*
X77026547Y-165625794D01*
X76376306Y-165625226D01*
X75775345Y-165873538D01*
X75315154Y-166332927D01*
X75065794Y-166933453D01*
X75065226Y-167583694D01*
X75313538Y-168184655D01*
X75772927Y-168644846D01*
X76373453Y-168894206D01*
X77023694Y-168894774D01*
X77624655Y-168646462D01*
X77876556Y-168395000D01*
X78273516Y-168395000D01*
X78522927Y-168644846D01*
X79123453Y-168894206D01*
X79773694Y-168894774D01*
X80374655Y-168646462D01*
X80786835Y-168235000D01*
X81273516Y-168235000D01*
X81522927Y-168484846D01*
X82123453Y-168734206D01*
X82773694Y-168734774D01*
X83374655Y-168486462D01*
X83626556Y-168235000D01*
X86098902Y-168235000D01*
X86602479Y-168739457D01*
X87313416Y-169034663D01*
X88083207Y-169035335D01*
X88794658Y-168741370D01*
X89339457Y-168197521D01*
X89634663Y-167486584D01*
X89634665Y-167483207D01*
X90764665Y-167483207D01*
X91058630Y-168194658D01*
X91602479Y-168739457D01*
X92313416Y-169034663D01*
X93083207Y-169035335D01*
X93794658Y-168741370D01*
X94101563Y-168435000D01*
X96269832Y-168435000D01*
X96402459Y-168633491D01*
X96997776Y-169031269D01*
X97700000Y-169170950D01*
X98402224Y-169031269D01*
X98997541Y-168633491D01*
X99395319Y-168038174D01*
X99535000Y-167335950D01*
X99535000Y-167264050D01*
X99395319Y-166561826D01*
X98997541Y-165966509D01*
X98402224Y-165568731D01*
X97700000Y-165429050D01*
X96997776Y-165568731D01*
X96402459Y-165966509D01*
X96269832Y-166165000D01*
X94407339Y-166165000D01*
X94341370Y-166005342D01*
X93835000Y-165498087D01*
X93835000Y-158439018D01*
X93951441Y-158364090D01*
X94096431Y-158151890D01*
X94147440Y-157900000D01*
X94147440Y-156300000D01*
X94133704Y-156227000D01*
X96020183Y-156227000D01*
X96035910Y-156251441D01*
X96248110Y-156396431D01*
X96500000Y-156447440D01*
X98900000Y-156447440D01*
X99135317Y-156403162D01*
X99351441Y-156264090D01*
X99496431Y-156051890D01*
X99547440Y-155800000D01*
X99547440Y-153461000D01*
X100752000Y-153461000D01*
X100798159Y-153452315D01*
X100840553Y-153425035D01*
X100868994Y-153383410D01*
X100879000Y-153334000D01*
X100879000Y-153277185D01*
X100893831Y-153271042D01*
X100955669Y-153035275D01*
X100200000Y-152279605D01*
X100185858Y-152293748D01*
X100006252Y-152114142D01*
X100020395Y-152100000D01*
X100379605Y-152100000D01*
X101135275Y-152855669D01*
X101371042Y-152793831D01*
X101547419Y-152292878D01*
X101518664Y-151762560D01*
X101371042Y-151406169D01*
X101135275Y-151344331D01*
X100379605Y-152100000D01*
X100020395Y-152100000D01*
X99264725Y-151344331D01*
X99210230Y-151358624D01*
X99016331Y-151164725D01*
X99444331Y-151164725D01*
X100200000Y-151920395D01*
X100955669Y-151164725D01*
X100893831Y-150928958D01*
X100392878Y-150752581D01*
X99862560Y-150781336D01*
X99506169Y-150928958D01*
X99444331Y-151164725D01*
X99016331Y-151164725D01*
X98835000Y-150983394D01*
X98835000Y-143274669D01*
X98851441Y-143264090D01*
X98996431Y-143051890D01*
X99047440Y-142800000D01*
X99047440Y-141400000D01*
X99003162Y-141164683D01*
X98875000Y-140965514D01*
X98875000Y-129953123D01*
X99201859Y-129463944D01*
X99325600Y-128841854D01*
X99325600Y-126758146D01*
X99201859Y-126136056D01*
X98849473Y-125608673D01*
X98322090Y-125256287D01*
X97700000Y-125132546D01*
X97077910Y-125256287D01*
X96550527Y-125608673D01*
X96198141Y-126136056D01*
X96074400Y-126758146D01*
X96074400Y-128841854D01*
X96198141Y-129463944D01*
X96550527Y-129991327D01*
X96605000Y-130027725D01*
X96605000Y-135965000D01*
X96264975Y-135965000D01*
X96101890Y-135853569D01*
X95850000Y-135802560D01*
X94550000Y-135802560D01*
X94314683Y-135846838D01*
X94098559Y-135985910D01*
X93953569Y-136198110D01*
X93902560Y-136450000D01*
X93902560Y-136612385D01*
X93829611Y-136436271D01*
X93599016Y-136380590D01*
X92879605Y-137100000D01*
X93599016Y-137819410D01*
X93829611Y-137763729D01*
X93902560Y-137554098D01*
X93902560Y-137750000D01*
X93946838Y-137985317D01*
X94085910Y-138201441D01*
X94298110Y-138346431D01*
X94550000Y-138397440D01*
X95850000Y-138397440D01*
X96085317Y-138353162D01*
X96268946Y-138235000D01*
X96605000Y-138235000D01*
X96605000Y-140899591D01*
X96548559Y-140935910D01*
X96403569Y-141148110D01*
X96352560Y-141400000D01*
X96352560Y-142800000D01*
X96396838Y-143035317D01*
X96535910Y-143251441D01*
X96565000Y-143271317D01*
X96565000Y-145215000D01*
X96536484Y-145215000D01*
X96287073Y-144965154D01*
X95686547Y-144715794D01*
X95036306Y-144715226D01*
X94435345Y-144963538D01*
X93975154Y-145422927D01*
X93725794Y-146023453D01*
X93725226Y-146673694D01*
X93973538Y-147274655D01*
X94432927Y-147734846D01*
X95033453Y-147984206D01*
X95683694Y-147984774D01*
X96284655Y-147736462D01*
X96536556Y-147485000D01*
X96565000Y-147485000D01*
X96565000Y-149651000D01*
X93994089Y-149651000D01*
X93969915Y-149607000D01*
X92827000Y-149607000D01*
X92827000Y-149627000D01*
X92573000Y-149627000D01*
X92573000Y-149607000D01*
X91430085Y-149607000D01*
X91308096Y-149829039D01*
X91393499Y-150035233D01*
X91383006Y-150050590D01*
X91373000Y-150100000D01*
X91373000Y-151430620D01*
X91346120Y-151470849D01*
X91236887Y-152020000D01*
X91346120Y-152569151D01*
X91373000Y-152609380D01*
X91373000Y-154054258D01*
X91308096Y-154210961D01*
X91373000Y-154329096D01*
X91373000Y-154790904D01*
X91308096Y-154909039D01*
X91373000Y-155065742D01*
X91373000Y-155946494D01*
X91303569Y-156048110D01*
X91252560Y-156300000D01*
X91252560Y-157900000D01*
X91296838Y-158135317D01*
X91435910Y-158351441D01*
X91565000Y-158439644D01*
X91565000Y-165498902D01*
X91060543Y-166002479D01*
X90765337Y-166713416D01*
X90764665Y-167483207D01*
X89634665Y-167483207D01*
X89635335Y-166716793D01*
X89341370Y-166005342D01*
X88835000Y-165498087D01*
X88835000Y-155600000D01*
X88827000Y-155559781D01*
X88827000Y-149130961D01*
X91308096Y-149130961D01*
X91430085Y-149353000D01*
X92573000Y-149353000D01*
X92573000Y-148209371D01*
X92827000Y-148209371D01*
X92827000Y-149353000D01*
X93969915Y-149353000D01*
X94091904Y-149130961D01*
X93931041Y-148742577D01*
X93555134Y-148327611D01*
X93049041Y-148088086D01*
X92827000Y-148209371D01*
X92573000Y-148209371D01*
X92350959Y-148088086D01*
X91844866Y-148327611D01*
X91468959Y-148742577D01*
X91308096Y-149130961D01*
X88827000Y-149130961D01*
X88827000Y-149100000D01*
X88824042Y-149072748D01*
X88803666Y-149026636D01*
X88766956Y-148992084D01*
X88757694Y-148988645D01*
X88835000Y-148600000D01*
X88835000Y-143278384D01*
X89078533Y-143035275D01*
X91944331Y-143035275D01*
X92006169Y-143271042D01*
X92507122Y-143447419D01*
X93037440Y-143418664D01*
X93393831Y-143271042D01*
X93455669Y-143035275D01*
X92700000Y-142279605D01*
X91944331Y-143035275D01*
X89078533Y-143035275D01*
X89084846Y-143028973D01*
X89334206Y-142428447D01*
X89334661Y-141907122D01*
X91352581Y-141907122D01*
X91381336Y-142437440D01*
X91528958Y-142793831D01*
X91764725Y-142855669D01*
X92520395Y-142100000D01*
X92879605Y-142100000D01*
X93635275Y-142855669D01*
X93871042Y-142793831D01*
X94047419Y-142292878D01*
X94018664Y-141762560D01*
X93871042Y-141406169D01*
X93635275Y-141344331D01*
X92879605Y-142100000D01*
X92520395Y-142100000D01*
X91764725Y-141344331D01*
X91528958Y-141406169D01*
X91352581Y-141907122D01*
X89334661Y-141907122D01*
X89334774Y-141778206D01*
X89086462Y-141177245D01*
X89073964Y-141164725D01*
X91944331Y-141164725D01*
X92700000Y-141920395D01*
X93455669Y-141164725D01*
X93393831Y-140928958D01*
X92892878Y-140752581D01*
X92362560Y-140781336D01*
X92006169Y-140928958D01*
X91944331Y-141164725D01*
X89073964Y-141164725D01*
X88627073Y-140717054D01*
X88026547Y-140467694D01*
X87376306Y-140467126D01*
X86775345Y-140715438D01*
X86315154Y-141174827D01*
X86065794Y-141775353D01*
X86065226Y-142425594D01*
X86073000Y-142444409D01*
X86073000Y-142973000D01*
X85200000Y-142973000D01*
X85153841Y-142981685D01*
X85111447Y-143008965D01*
X85083006Y-143050590D01*
X85073000Y-143100000D01*
X85073000Y-143465000D01*
X83628380Y-143465000D01*
X83377073Y-143213254D01*
X82776547Y-142963894D01*
X82126306Y-142963326D01*
X81525345Y-143211638D01*
X81065154Y-143671027D01*
X80815794Y-144271553D01*
X80815226Y-144921794D01*
X80823000Y-144940609D01*
X80823000Y-149255459D01*
X80815794Y-149272813D01*
X80815226Y-149923054D01*
X81063538Y-150524015D01*
X81388800Y-150849845D01*
X81273444Y-150965000D01*
X80170133Y-150965000D01*
X79835000Y-150629868D01*
X79835000Y-139070132D01*
X80507692Y-138397440D01*
X80850000Y-138397440D01*
X81085317Y-138353162D01*
X81301441Y-138214090D01*
X81446431Y-138001890D01*
X81447012Y-137999016D01*
X81980590Y-137999016D01*
X82036271Y-138229611D01*
X82519078Y-138397622D01*
X83029428Y-138368083D01*
X83307738Y-138252803D01*
X86727443Y-138252803D01*
X86826042Y-138519605D01*
X87435582Y-138746041D01*
X88085377Y-138721981D01*
X88573958Y-138519605D01*
X88672557Y-138252803D01*
X87700000Y-137280245D01*
X86727443Y-138252803D01*
X83307738Y-138252803D01*
X83363729Y-138229611D01*
X83419410Y-137999016D01*
X82700000Y-137279605D01*
X81980590Y-137999016D01*
X81447012Y-137999016D01*
X81497440Y-137750000D01*
X81497440Y-137587615D01*
X81570389Y-137763729D01*
X81800984Y-137819410D01*
X82520395Y-137100000D01*
X82879605Y-137100000D01*
X83599016Y-137819410D01*
X83829611Y-137763729D01*
X83997622Y-137280922D01*
X83971883Y-136836222D01*
X86054599Y-136836222D01*
X86078659Y-137486017D01*
X86281035Y-137974598D01*
X86547837Y-138073197D01*
X87520395Y-137100640D01*
X87879605Y-137100640D01*
X88852163Y-138073197D01*
X89052891Y-137999016D01*
X91980590Y-137999016D01*
X92036271Y-138229611D01*
X92519078Y-138397622D01*
X93029428Y-138368083D01*
X93363729Y-138229611D01*
X93419410Y-137999016D01*
X92700000Y-137279605D01*
X91980590Y-137999016D01*
X89052891Y-137999016D01*
X89118965Y-137974598D01*
X89345401Y-137365058D01*
X89328888Y-136919078D01*
X91402378Y-136919078D01*
X91431917Y-137429428D01*
X91570389Y-137763729D01*
X91800984Y-137819410D01*
X92520395Y-137100000D01*
X91800984Y-136380590D01*
X91570389Y-136436271D01*
X91402378Y-136919078D01*
X89328888Y-136919078D01*
X89321341Y-136715263D01*
X89118965Y-136226682D01*
X89049429Y-136200984D01*
X91980590Y-136200984D01*
X92700000Y-136920395D01*
X93419410Y-136200984D01*
X93363729Y-135970389D01*
X92880922Y-135802378D01*
X92370572Y-135831917D01*
X92036271Y-135970389D01*
X91980590Y-136200984D01*
X89049429Y-136200984D01*
X88852163Y-136128083D01*
X87879605Y-137100640D01*
X87520395Y-137100640D01*
X86547837Y-136128083D01*
X86281035Y-136226682D01*
X86054599Y-136836222D01*
X83971883Y-136836222D01*
X83968083Y-136770572D01*
X83829611Y-136436271D01*
X83599016Y-136380590D01*
X82879605Y-137100000D01*
X82520395Y-137100000D01*
X82506252Y-137085858D01*
X82685858Y-136906252D01*
X82700000Y-136920395D01*
X83419410Y-136200984D01*
X83363729Y-135970389D01*
X83300762Y-135948477D01*
X86727443Y-135948477D01*
X87700000Y-136921035D01*
X88672557Y-135948477D01*
X88573958Y-135681675D01*
X87964418Y-135455239D01*
X87314623Y-135479299D01*
X86826042Y-135681675D01*
X86727443Y-135948477D01*
X83300762Y-135948477D01*
X82880922Y-135802378D01*
X82370572Y-135831917D01*
X82036271Y-135970389D01*
X81980590Y-136200982D01*
X81865130Y-136085522D01*
X81835000Y-136115652D01*
X81835000Y-130270132D01*
X81888188Y-130216944D01*
X82077910Y-130343713D01*
X82700000Y-130467454D01*
X83322090Y-130343713D01*
X83849473Y-129991327D01*
X84201859Y-129463944D01*
X84325600Y-128841854D01*
X84325600Y-127927000D01*
X86074400Y-127927000D01*
X86074400Y-128917600D01*
X86246742Y-129530023D01*
X86640330Y-130029876D01*
X87195243Y-130341060D01*
X87321041Y-130371411D01*
X87573000Y-130251942D01*
X87573000Y-127927000D01*
X87827000Y-127927000D01*
X87827000Y-130251942D01*
X88078959Y-130371411D01*
X88204757Y-130341060D01*
X88759670Y-130029876D01*
X89153258Y-129530023D01*
X89325600Y-128917600D01*
X89325600Y-127927000D01*
X91074400Y-127927000D01*
X91074400Y-128917600D01*
X91246742Y-129530023D01*
X91640330Y-130029876D01*
X92195243Y-130341060D01*
X92321041Y-130371411D01*
X92573000Y-130251942D01*
X92573000Y-127927000D01*
X92827000Y-127927000D01*
X92827000Y-130251942D01*
X93078959Y-130371411D01*
X93204757Y-130341060D01*
X93759670Y-130029876D01*
X94153258Y-129530023D01*
X94325600Y-128917600D01*
X94325600Y-127927000D01*
X92827000Y-127927000D01*
X92573000Y-127927000D01*
X91074400Y-127927000D01*
X89325600Y-127927000D01*
X87827000Y-127927000D01*
X87573000Y-127927000D01*
X86074400Y-127927000D01*
X84325600Y-127927000D01*
X84325600Y-126758146D01*
X84310534Y-126682400D01*
X86074400Y-126682400D01*
X86074400Y-127673000D01*
X87573000Y-127673000D01*
X87573000Y-125348058D01*
X87827000Y-125348058D01*
X87827000Y-127673000D01*
X89325600Y-127673000D01*
X89325600Y-126682400D01*
X91074400Y-126682400D01*
X91074400Y-127673000D01*
X92573000Y-127673000D01*
X92573000Y-125348058D01*
X92827000Y-125348058D01*
X92827000Y-127673000D01*
X94325600Y-127673000D01*
X94325600Y-126682400D01*
X94153258Y-126069977D01*
X93759670Y-125570124D01*
X93204757Y-125258940D01*
X93078959Y-125228589D01*
X92827000Y-125348058D01*
X92573000Y-125348058D01*
X92321041Y-125228589D01*
X92195243Y-125258940D01*
X91640330Y-125570124D01*
X91246742Y-126069977D01*
X91074400Y-126682400D01*
X89325600Y-126682400D01*
X89153258Y-126069977D01*
X88759670Y-125570124D01*
X88204757Y-125258940D01*
X88078959Y-125228589D01*
X87827000Y-125348058D01*
X87573000Y-125348058D01*
X87321041Y-125228589D01*
X87195243Y-125258940D01*
X86640330Y-125570124D01*
X86246742Y-126069977D01*
X86074400Y-126682400D01*
X84310534Y-126682400D01*
X84201859Y-126136056D01*
X83849473Y-125608673D01*
X83322090Y-125256287D01*
X82700000Y-125132546D01*
X82077910Y-125256287D01*
X81550527Y-125608673D01*
X81198141Y-126136056D01*
X81074400Y-126758146D01*
X81074400Y-127820468D01*
X79897434Y-128997434D01*
X79651397Y-129365654D01*
X79565000Y-129800000D01*
X79565000Y-135802560D01*
X79550000Y-135802560D01*
X79314683Y-135846838D01*
X79098559Y-135985910D01*
X78953569Y-136198110D01*
X78902560Y-136450000D01*
X78902560Y-136792308D01*
X77897434Y-137797434D01*
X77651397Y-138165654D01*
X77565000Y-138600000D01*
X77565000Y-151100000D01*
X77651397Y-151534346D01*
X77813070Y-151776306D01*
X77897434Y-151902566D01*
X78897434Y-152902567D01*
X79265655Y-153148604D01*
X79700000Y-153235000D01*
X81273516Y-153235000D01*
X81522927Y-153484846D01*
X82123453Y-153734206D01*
X82773694Y-153734774D01*
X82821551Y-153715000D01*
X83611000Y-153715000D01*
X83611000Y-155965000D01*
X80626484Y-155965000D01*
X80377073Y-155715154D01*
X79776547Y-155465794D01*
X79126306Y-155465226D01*
X78525345Y-155713538D01*
X78273444Y-155965000D01*
X77876484Y-155965000D01*
X77627073Y-155715154D01*
X77026547Y-155465794D01*
X76376306Y-155465226D01*
X75775345Y-155713538D01*
X75315154Y-156172927D01*
X75065794Y-156773453D01*
X75065226Y-157423694D01*
X73775760Y-157423694D01*
X73810868Y-123707000D01*
X105872868Y-123707000D01*
X105823132Y-171473000D01*
G36*
X92827000Y-154433000D02*
X92847000Y-154433000D01*
X92847000Y-154687000D01*
X92827000Y-154687000D01*
X92827000Y-154707000D01*
X92573000Y-154707000D01*
X92573000Y-154687000D01*
X92327000Y-154687000D01*
X92327000Y-154433000D01*
X92573000Y-154433000D01*
X92573000Y-154413000D01*
X92827000Y-154413000D01*
X92827000Y-154433000D01*
X92827000Y-154433000D01*
G37*
X92827000Y-154433000D02*
X92847000Y-154433000D01*
X92847000Y-154687000D01*
X92827000Y-154687000D01*
X92827000Y-154707000D01*
X92573000Y-154707000D01*
X92573000Y-154687000D01*
X92327000Y-154687000D01*
X92327000Y-154433000D01*
X92573000Y-154433000D01*
X92573000Y-154413000D01*
X92827000Y-154413000D01*
X92827000Y-154433000D01*
G36*
X139223132Y-171573000D02*
X107161132Y-171573000D01*
X107175760Y-157523694D01*
X108465226Y-157523694D01*
X108713538Y-158124655D01*
X109172927Y-158584846D01*
X109773453Y-158834206D01*
X110423694Y-158834774D01*
X111024655Y-158586462D01*
X111276556Y-158335000D01*
X111673516Y-158335000D01*
X111922927Y-158584846D01*
X112523453Y-158834206D01*
X113173694Y-158834774D01*
X113774655Y-158586462D01*
X114026556Y-158335000D01*
X117617233Y-158335000D01*
X117902736Y-158525767D01*
X118322903Y-158609344D01*
X118354590Y-158630994D01*
X118404000Y-158641000D01*
X119965000Y-158641000D01*
X119965000Y-165598902D01*
X119498087Y-166065000D01*
X117026484Y-166065000D01*
X116777073Y-165815154D01*
X116176547Y-165565794D01*
X115526306Y-165565226D01*
X114925345Y-165813538D01*
X114673444Y-166065000D01*
X113866762Y-166065000D01*
X113777073Y-165975154D01*
X113176547Y-165725794D01*
X112526306Y-165725226D01*
X111925345Y-165973538D01*
X111673444Y-166225000D01*
X111276484Y-166225000D01*
X111027073Y-165975154D01*
X110426547Y-165725794D01*
X109776306Y-165725226D01*
X109175345Y-165973538D01*
X108715154Y-166432927D01*
X108465794Y-167033453D01*
X108465226Y-167683694D01*
X108713538Y-168284655D01*
X109172927Y-168744846D01*
X109773453Y-168994206D01*
X110423694Y-168994774D01*
X111024655Y-168746462D01*
X111276556Y-168495000D01*
X111673516Y-168495000D01*
X111922927Y-168744846D01*
X112523453Y-168994206D01*
X113173694Y-168994774D01*
X113774655Y-168746462D01*
X114186835Y-168335000D01*
X114673516Y-168335000D01*
X114922927Y-168584846D01*
X115523453Y-168834206D01*
X116173694Y-168834774D01*
X116774655Y-168586462D01*
X117026556Y-168335000D01*
X119498902Y-168335000D01*
X120002479Y-168839457D01*
X120713416Y-169134663D01*
X121483207Y-169135335D01*
X122194658Y-168841370D01*
X122739457Y-168297521D01*
X123034663Y-167586584D01*
X123034665Y-167583207D01*
X124164665Y-167583207D01*
X124458630Y-168294658D01*
X125002479Y-168839457D01*
X125713416Y-169134663D01*
X126483207Y-169135335D01*
X127194658Y-168841370D01*
X127501563Y-168535000D01*
X129669832Y-168535000D01*
X129802459Y-168733491D01*
X130397776Y-169131269D01*
X131100000Y-169270950D01*
X131802224Y-169131269D01*
X132397541Y-168733491D01*
X132795319Y-168138174D01*
X132935000Y-167435950D01*
X132935000Y-167364050D01*
X132795319Y-166661826D01*
X132397541Y-166066509D01*
X131802224Y-165668731D01*
X131100000Y-165529050D01*
X130397776Y-165668731D01*
X129802459Y-166066509D01*
X129669832Y-166265000D01*
X127807339Y-166265000D01*
X127741370Y-166105342D01*
X127235000Y-165598087D01*
X127235000Y-158539018D01*
X127351441Y-158464090D01*
X127496431Y-158251890D01*
X127547440Y-158000000D01*
X127547440Y-156400000D01*
X127533704Y-156327000D01*
X129420183Y-156327000D01*
X129435910Y-156351441D01*
X129648110Y-156496431D01*
X129900000Y-156547440D01*
X132300000Y-156547440D01*
X132535317Y-156503162D01*
X132751441Y-156364090D01*
X132896431Y-156151890D01*
X132947440Y-155900000D01*
X132947440Y-153561000D01*
X134152000Y-153561000D01*
X134198159Y-153552315D01*
X134240553Y-153525035D01*
X134268994Y-153483410D01*
X134279000Y-153434000D01*
X134279000Y-153377185D01*
X134293831Y-153371042D01*
X134355669Y-153135275D01*
X133600000Y-152379605D01*
X133585858Y-152393748D01*
X133406252Y-152214142D01*
X133420395Y-152200000D01*
X133779605Y-152200000D01*
X134535275Y-152955669D01*
X134771042Y-152893831D01*
X134947419Y-152392878D01*
X134918664Y-151862560D01*
X134771042Y-151506169D01*
X134535275Y-151444331D01*
X133779605Y-152200000D01*
X133420395Y-152200000D01*
X132664725Y-151444331D01*
X132610230Y-151458624D01*
X132416331Y-151264725D01*
X132844331Y-151264725D01*
X133600000Y-152020395D01*
X134355669Y-151264725D01*
X134293831Y-151028958D01*
X133792878Y-150852581D01*
X133262560Y-150881336D01*
X132906169Y-151028958D01*
X132844331Y-151264725D01*
X132416331Y-151264725D01*
X132235000Y-151083394D01*
X132235000Y-143374669D01*
X132251441Y-143364090D01*
X132396431Y-143151890D01*
X132447440Y-142900000D01*
X132447440Y-141500000D01*
X132403162Y-141264683D01*
X132275000Y-141065514D01*
X132275000Y-130053123D01*
X132601859Y-129563944D01*
X132725600Y-128941854D01*
X132725600Y-126858146D01*
X132601859Y-126236056D01*
X132249473Y-125708673D01*
X131722090Y-125356287D01*
X131100000Y-125232546D01*
X130477910Y-125356287D01*
X129950527Y-125708673D01*
X129598141Y-126236056D01*
X129474400Y-126858146D01*
X129474400Y-128941854D01*
X129598141Y-129563944D01*
X129950527Y-130091327D01*
X130005000Y-130127725D01*
X130005000Y-136065000D01*
X129664975Y-136065000D01*
X129501890Y-135953569D01*
X129250000Y-135902560D01*
X127950000Y-135902560D01*
X127714683Y-135946838D01*
X127498559Y-136085910D01*
X127353569Y-136298110D01*
X127302560Y-136550000D01*
X127302560Y-136712385D01*
X127229611Y-136536271D01*
X126999016Y-136480590D01*
X126279605Y-137200000D01*
X126999016Y-137919410D01*
X127229611Y-137863729D01*
X127302560Y-137654098D01*
X127302560Y-137850000D01*
X127346838Y-138085317D01*
X127485910Y-138301441D01*
X127698110Y-138446431D01*
X127950000Y-138497440D01*
X129250000Y-138497440D01*
X129485317Y-138453162D01*
X129668946Y-138335000D01*
X130005000Y-138335000D01*
X130005000Y-140999591D01*
X129948559Y-141035910D01*
X129803569Y-141248110D01*
X129752560Y-141500000D01*
X129752560Y-142900000D01*
X129796838Y-143135317D01*
X129935910Y-143351441D01*
X129965000Y-143371317D01*
X129965000Y-145315000D01*
X129936484Y-145315000D01*
X129687073Y-145065154D01*
X129086547Y-144815794D01*
X128436306Y-144815226D01*
X127835345Y-145063538D01*
X127375154Y-145522927D01*
X127125794Y-146123453D01*
X127125226Y-146773694D01*
X127373538Y-147374655D01*
X127832927Y-147834846D01*
X128433453Y-148084206D01*
X129083694Y-148084774D01*
X129684655Y-147836462D01*
X129936556Y-147585000D01*
X129965000Y-147585000D01*
X129965000Y-149751000D01*
X127394089Y-149751000D01*
X127369915Y-149707000D01*
X126227000Y-149707000D01*
X126227000Y-149727000D01*
X125973000Y-149727000D01*
X125973000Y-149707000D01*
X124830085Y-149707000D01*
X124708096Y-149929039D01*
X124793499Y-150135233D01*
X124783006Y-150150590D01*
X124773000Y-150200000D01*
X124773000Y-151530620D01*
X124746120Y-151570849D01*
X124636887Y-152120000D01*
X124746120Y-152669151D01*
X124773000Y-152709380D01*
X124773000Y-154154258D01*
X124708096Y-154310961D01*
X124773000Y-154429096D01*
X124773000Y-154890904D01*
X124708096Y-155009039D01*
X124773000Y-155165742D01*
X124773000Y-156046494D01*
X124703569Y-156148110D01*
X124652560Y-156400000D01*
X124652560Y-158000000D01*
X124696838Y-158235317D01*
X124835910Y-158451441D01*
X124965000Y-158539644D01*
X124965000Y-165598902D01*
X124460543Y-166102479D01*
X124165337Y-166813416D01*
X124164665Y-167583207D01*
X123034665Y-167583207D01*
X123035335Y-166816793D01*
X122741370Y-166105342D01*
X122235000Y-165598087D01*
X122235000Y-155700000D01*
X122227000Y-155659781D01*
X122227000Y-149230961D01*
X124708096Y-149230961D01*
X124830085Y-149453000D01*
X125973000Y-149453000D01*
X125973000Y-148309371D01*
X126227000Y-148309371D01*
X126227000Y-149453000D01*
X127369915Y-149453000D01*
X127491904Y-149230961D01*
X127331041Y-148842577D01*
X126955134Y-148427611D01*
X126449041Y-148188086D01*
X126227000Y-148309371D01*
X125973000Y-148309371D01*
X125750959Y-148188086D01*
X125244866Y-148427611D01*
X124868959Y-148842577D01*
X124708096Y-149230961D01*
X122227000Y-149230961D01*
X122227000Y-149200000D01*
X122224042Y-149172748D01*
X122203666Y-149126636D01*
X122166956Y-149092084D01*
X122157694Y-149088645D01*
X122235000Y-148700000D01*
X122235000Y-143378384D01*
X122478533Y-143135275D01*
X125344331Y-143135275D01*
X125406169Y-143371042D01*
X125907122Y-143547419D01*
X126437440Y-143518664D01*
X126793831Y-143371042D01*
X126855669Y-143135275D01*
X126100000Y-142379605D01*
X125344331Y-143135275D01*
X122478533Y-143135275D01*
X122484846Y-143128973D01*
X122734206Y-142528447D01*
X122734661Y-142007122D01*
X124752581Y-142007122D01*
X124781336Y-142537440D01*
X124928958Y-142893831D01*
X125164725Y-142955669D01*
X125920395Y-142200000D01*
X126279605Y-142200000D01*
X127035275Y-142955669D01*
X127271042Y-142893831D01*
X127447419Y-142392878D01*
X127418664Y-141862560D01*
X127271042Y-141506169D01*
X127035275Y-141444331D01*
X126279605Y-142200000D01*
X125920395Y-142200000D01*
X125164725Y-141444331D01*
X124928958Y-141506169D01*
X124752581Y-142007122D01*
X122734661Y-142007122D01*
X122734774Y-141878206D01*
X122486462Y-141277245D01*
X122473964Y-141264725D01*
X125344331Y-141264725D01*
X126100000Y-142020395D01*
X126855669Y-141264725D01*
X126793831Y-141028958D01*
X126292878Y-140852581D01*
X125762560Y-140881336D01*
X125406169Y-141028958D01*
X125344331Y-141264725D01*
X122473964Y-141264725D01*
X122027073Y-140817054D01*
X121426547Y-140567694D01*
X120776306Y-140567126D01*
X120175345Y-140815438D01*
X119715154Y-141274827D01*
X119465794Y-141875353D01*
X119465226Y-142525594D01*
X119473000Y-142544409D01*
X119473000Y-143073000D01*
X118600000Y-143073000D01*
X118553841Y-143081685D01*
X118511447Y-143108965D01*
X118483006Y-143150590D01*
X118473000Y-143200000D01*
X118473000Y-143565000D01*
X117028380Y-143565000D01*
X116777073Y-143313254D01*
X116176547Y-143063894D01*
X115526306Y-143063326D01*
X114925345Y-143311638D01*
X114465154Y-143771027D01*
X114215794Y-144371553D01*
X114215226Y-145021794D01*
X114223000Y-145040609D01*
X114223000Y-149355459D01*
X114215794Y-149372813D01*
X114215226Y-150023054D01*
X114463538Y-150624015D01*
X114788800Y-150949845D01*
X114673444Y-151065000D01*
X113570133Y-151065000D01*
X113235000Y-150729868D01*
X113235000Y-139170132D01*
X113907692Y-138497440D01*
X114250000Y-138497440D01*
X114485317Y-138453162D01*
X114701441Y-138314090D01*
X114846431Y-138101890D01*
X114847012Y-138099016D01*
X115380590Y-138099016D01*
X115436271Y-138329611D01*
X115919078Y-138497622D01*
X116429428Y-138468083D01*
X116707738Y-138352803D01*
X120127443Y-138352803D01*
X120226042Y-138619605D01*
X120835582Y-138846041D01*
X121485377Y-138821981D01*
X121973958Y-138619605D01*
X122072557Y-138352803D01*
X121100000Y-137380245D01*
X120127443Y-138352803D01*
X116707738Y-138352803D01*
X116763729Y-138329611D01*
X116819410Y-138099016D01*
X116100000Y-137379605D01*
X115380590Y-138099016D01*
X114847012Y-138099016D01*
X114897440Y-137850000D01*
X114897440Y-137687615D01*
X114970389Y-137863729D01*
X115200984Y-137919410D01*
X115920395Y-137200000D01*
X116279605Y-137200000D01*
X116999016Y-137919410D01*
X117229611Y-137863729D01*
X117397622Y-137380922D01*
X117371883Y-136936222D01*
X119454599Y-136936222D01*
X119478659Y-137586017D01*
X119681035Y-138074598D01*
X119947837Y-138173197D01*
X120920395Y-137200640D01*
X121279605Y-137200640D01*
X122252163Y-138173197D01*
X122452891Y-138099016D01*
X125380590Y-138099016D01*
X125436271Y-138329611D01*
X125919078Y-138497622D01*
X126429428Y-138468083D01*
X126763729Y-138329611D01*
X126819410Y-138099016D01*
X126100000Y-137379605D01*
X125380590Y-138099016D01*
X122452891Y-138099016D01*
X122518965Y-138074598D01*
X122745401Y-137465058D01*
X122728888Y-137019078D01*
X124802378Y-137019078D01*
X124831917Y-137529428D01*
X124970389Y-137863729D01*
X125200984Y-137919410D01*
X125920395Y-137200000D01*
X125200984Y-136480590D01*
X124970389Y-136536271D01*
X124802378Y-137019078D01*
X122728888Y-137019078D01*
X122721341Y-136815263D01*
X122518965Y-136326682D01*
X122449429Y-136300984D01*
X125380590Y-136300984D01*
X126100000Y-137020395D01*
X126819410Y-136300984D01*
X126763729Y-136070389D01*
X126280922Y-135902378D01*
X125770572Y-135931917D01*
X125436271Y-136070389D01*
X125380590Y-136300984D01*
X122449429Y-136300984D01*
X122252163Y-136228083D01*
X121279605Y-137200640D01*
X120920395Y-137200640D01*
X119947837Y-136228083D01*
X119681035Y-136326682D01*
X119454599Y-136936222D01*
X117371883Y-136936222D01*
X117368083Y-136870572D01*
X117229611Y-136536271D01*
X116999016Y-136480590D01*
X116279605Y-137200000D01*
X115920395Y-137200000D01*
X115906252Y-137185858D01*
X116085858Y-137006252D01*
X116100000Y-137020395D01*
X116819410Y-136300984D01*
X116763729Y-136070389D01*
X116700762Y-136048477D01*
X120127443Y-136048477D01*
X121100000Y-137021035D01*
X122072557Y-136048477D01*
X121973958Y-135781675D01*
X121364418Y-135555239D01*
X120714623Y-135579299D01*
X120226042Y-135781675D01*
X120127443Y-136048477D01*
X116700762Y-136048477D01*
X116280922Y-135902378D01*
X115770572Y-135931917D01*
X115436271Y-136070389D01*
X115380590Y-136300982D01*
X115265130Y-136185522D01*
X115235000Y-136215652D01*
X115235000Y-130370132D01*
X115288188Y-130316944D01*
X115477910Y-130443713D01*
X116100000Y-130567454D01*
X116722090Y-130443713D01*
X117249473Y-130091327D01*
X117601859Y-129563944D01*
X117725600Y-128941854D01*
X117725600Y-128027000D01*
X119474400Y-128027000D01*
X119474400Y-129017600D01*
X119646742Y-129630023D01*
X120040330Y-130129876D01*
X120595243Y-130441060D01*
X120721041Y-130471411D01*
X120973000Y-130351942D01*
X120973000Y-128027000D01*
X121227000Y-128027000D01*
X121227000Y-130351942D01*
X121478959Y-130471411D01*
X121604757Y-130441060D01*
X122159670Y-130129876D01*
X122553258Y-129630023D01*
X122725600Y-129017600D01*
X122725600Y-128027000D01*
X124474400Y-128027000D01*
X124474400Y-129017600D01*
X124646742Y-129630023D01*
X125040330Y-130129876D01*
X125595243Y-130441060D01*
X125721041Y-130471411D01*
X125973000Y-130351942D01*
X125973000Y-128027000D01*
X126227000Y-128027000D01*
X126227000Y-130351942D01*
X126478959Y-130471411D01*
X126604757Y-130441060D01*
X127159670Y-130129876D01*
X127553258Y-129630023D01*
X127725600Y-129017600D01*
X127725600Y-128027000D01*
X126227000Y-128027000D01*
X125973000Y-128027000D01*
X124474400Y-128027000D01*
X122725600Y-128027000D01*
X121227000Y-128027000D01*
X120973000Y-128027000D01*
X119474400Y-128027000D01*
X117725600Y-128027000D01*
X117725600Y-126858146D01*
X117710534Y-126782400D01*
X119474400Y-126782400D01*
X119474400Y-127773000D01*
X120973000Y-127773000D01*
X120973000Y-125448058D01*
X121227000Y-125448058D01*
X121227000Y-127773000D01*
X122725600Y-127773000D01*
X122725600Y-126782400D01*
X124474400Y-126782400D01*
X124474400Y-127773000D01*
X125973000Y-127773000D01*
X125973000Y-125448058D01*
X126227000Y-125448058D01*
X126227000Y-127773000D01*
X127725600Y-127773000D01*
X127725600Y-126782400D01*
X127553258Y-126169977D01*
X127159670Y-125670124D01*
X126604757Y-125358940D01*
X126478959Y-125328589D01*
X126227000Y-125448058D01*
X125973000Y-125448058D01*
X125721041Y-125328589D01*
X125595243Y-125358940D01*
X125040330Y-125670124D01*
X124646742Y-126169977D01*
X124474400Y-126782400D01*
X122725600Y-126782400D01*
X122553258Y-126169977D01*
X122159670Y-125670124D01*
X121604757Y-125358940D01*
X121478959Y-125328589D01*
X121227000Y-125448058D01*
X120973000Y-125448058D01*
X120721041Y-125328589D01*
X120595243Y-125358940D01*
X120040330Y-125670124D01*
X119646742Y-126169977D01*
X119474400Y-126782400D01*
X117710534Y-126782400D01*
X117601859Y-126236056D01*
X117249473Y-125708673D01*
X116722090Y-125356287D01*
X116100000Y-125232546D01*
X115477910Y-125356287D01*
X114950527Y-125708673D01*
X114598141Y-126236056D01*
X114474400Y-126858146D01*
X114474400Y-127920468D01*
X113297434Y-129097434D01*
X113051397Y-129465654D01*
X112965000Y-129900000D01*
X112965000Y-135902560D01*
X112950000Y-135902560D01*
X112714683Y-135946838D01*
X112498559Y-136085910D01*
X112353569Y-136298110D01*
X112302560Y-136550000D01*
X112302560Y-136892308D01*
X111297434Y-137897434D01*
X111051397Y-138265654D01*
X110965000Y-138700000D01*
X110965000Y-151200000D01*
X111051397Y-151634346D01*
X111213070Y-151876306D01*
X111297434Y-152002566D01*
X112297434Y-153002567D01*
X112665655Y-153248604D01*
X113100000Y-153335000D01*
X114673516Y-153335000D01*
X114922927Y-153584846D01*
X115523453Y-153834206D01*
X116173694Y-153834774D01*
X116221551Y-153815000D01*
X117011000Y-153815000D01*
X117011000Y-156065000D01*
X114026484Y-156065000D01*
X113777073Y-155815154D01*
X113176547Y-155565794D01*
X112526306Y-155565226D01*
X111925345Y-155813538D01*
X111673444Y-156065000D01*
X111276484Y-156065000D01*
X111027073Y-155815154D01*
X110426547Y-155565794D01*
X109776306Y-155565226D01*
X109175345Y-155813538D01*
X108715154Y-156272927D01*
X108465794Y-156873453D01*
X108465226Y-157523694D01*
X107175760Y-157523694D01*
X107210868Y-123807000D01*
X139272868Y-123807000D01*
X139223132Y-171573000D01*
X139223132Y-171573000D01*
G37*
X139223132Y-171573000D02*
X107161132Y-171573000D01*
X107175760Y-157523694D01*
X108465226Y-157523694D01*
X108713538Y-158124655D01*
X109172927Y-158584846D01*
X109773453Y-158834206D01*
X110423694Y-158834774D01*
X111024655Y-158586462D01*
X111276556Y-158335000D01*
X111673516Y-158335000D01*
X111922927Y-158584846D01*
X112523453Y-158834206D01*
X113173694Y-158834774D01*
X113774655Y-158586462D01*
X114026556Y-158335000D01*
X117617233Y-158335000D01*
X117902736Y-158525767D01*
X118322903Y-158609344D01*
X118354590Y-158630994D01*
X118404000Y-158641000D01*
X119965000Y-158641000D01*
X119965000Y-165598902D01*
X119498087Y-166065000D01*
X117026484Y-166065000D01*
X116777073Y-165815154D01*
X116176547Y-165565794D01*
X115526306Y-165565226D01*
X114925345Y-165813538D01*
X114673444Y-166065000D01*
X113866762Y-166065000D01*
X113777073Y-165975154D01*
X113176547Y-165725794D01*
X112526306Y-165725226D01*
X111925345Y-165973538D01*
X111673444Y-166225000D01*
X111276484Y-166225000D01*
X111027073Y-165975154D01*
X110426547Y-165725794D01*
X109776306Y-165725226D01*
X109175345Y-165973538D01*
X108715154Y-166432927D01*
X108465794Y-167033453D01*
X108465226Y-167683694D01*
X108713538Y-168284655D01*
X109172927Y-168744846D01*
X109773453Y-168994206D01*
X110423694Y-168994774D01*
X111024655Y-168746462D01*
X111276556Y-168495000D01*
X111673516Y-168495000D01*
X111922927Y-168744846D01*
X112523453Y-168994206D01*
X113173694Y-168994774D01*
X113774655Y-168746462D01*
X114186835Y-168335000D01*
X114673516Y-168335000D01*
X114922927Y-168584846D01*
X115523453Y-168834206D01*
X116173694Y-168834774D01*
X116774655Y-168586462D01*
X117026556Y-168335000D01*
X119498902Y-168335000D01*
X120002479Y-168839457D01*
X120713416Y-169134663D01*
X121483207Y-169135335D01*
X122194658Y-168841370D01*
X122739457Y-168297521D01*
X123034663Y-167586584D01*
X123034665Y-167583207D01*
X124164665Y-167583207D01*
X124458630Y-168294658D01*
X125002479Y-168839457D01*
X125713416Y-169134663D01*
X126483207Y-169135335D01*
X127194658Y-168841370D01*
X127501563Y-168535000D01*
X129669832Y-168535000D01*
X129802459Y-168733491D01*
X130397776Y-169131269D01*
X131100000Y-169270950D01*
X131802224Y-169131269D01*
X132397541Y-168733491D01*
X132795319Y-168138174D01*
X132935000Y-167435950D01*
X132935000Y-167364050D01*
X132795319Y-166661826D01*
X132397541Y-166066509D01*
X131802224Y-165668731D01*
X131100000Y-165529050D01*
X130397776Y-165668731D01*
X129802459Y-166066509D01*
X129669832Y-166265000D01*
X127807339Y-166265000D01*
X127741370Y-166105342D01*
X127235000Y-165598087D01*
X127235000Y-158539018D01*
X127351441Y-158464090D01*
X127496431Y-158251890D01*
X127547440Y-158000000D01*
X127547440Y-156400000D01*
X127533704Y-156327000D01*
X129420183Y-156327000D01*
X129435910Y-156351441D01*
X129648110Y-156496431D01*
X129900000Y-156547440D01*
X132300000Y-156547440D01*
X132535317Y-156503162D01*
X132751441Y-156364090D01*
X132896431Y-156151890D01*
X132947440Y-155900000D01*
X132947440Y-153561000D01*
X134152000Y-153561000D01*
X134198159Y-153552315D01*
X134240553Y-153525035D01*
X134268994Y-153483410D01*
X134279000Y-153434000D01*
X134279000Y-153377185D01*
X134293831Y-153371042D01*
X134355669Y-153135275D01*
X133600000Y-152379605D01*
X133585858Y-152393748D01*
X133406252Y-152214142D01*
X133420395Y-152200000D01*
X133779605Y-152200000D01*
X134535275Y-152955669D01*
X134771042Y-152893831D01*
X134947419Y-152392878D01*
X134918664Y-151862560D01*
X134771042Y-151506169D01*
X134535275Y-151444331D01*
X133779605Y-152200000D01*
X133420395Y-152200000D01*
X132664725Y-151444331D01*
X132610230Y-151458624D01*
X132416331Y-151264725D01*
X132844331Y-151264725D01*
X133600000Y-152020395D01*
X134355669Y-151264725D01*
X134293831Y-151028958D01*
X133792878Y-150852581D01*
X133262560Y-150881336D01*
X132906169Y-151028958D01*
X132844331Y-151264725D01*
X132416331Y-151264725D01*
X132235000Y-151083394D01*
X132235000Y-143374669D01*
X132251441Y-143364090D01*
X132396431Y-143151890D01*
X132447440Y-142900000D01*
X132447440Y-141500000D01*
X132403162Y-141264683D01*
X132275000Y-141065514D01*
X132275000Y-130053123D01*
X132601859Y-129563944D01*
X132725600Y-128941854D01*
X132725600Y-126858146D01*
X132601859Y-126236056D01*
X132249473Y-125708673D01*
X131722090Y-125356287D01*
X131100000Y-125232546D01*
X130477910Y-125356287D01*
X129950527Y-125708673D01*
X129598141Y-126236056D01*
X129474400Y-126858146D01*
X129474400Y-128941854D01*
X129598141Y-129563944D01*
X129950527Y-130091327D01*
X130005000Y-130127725D01*
X130005000Y-136065000D01*
X129664975Y-136065000D01*
X129501890Y-135953569D01*
X129250000Y-135902560D01*
X127950000Y-135902560D01*
X127714683Y-135946838D01*
X127498559Y-136085910D01*
X127353569Y-136298110D01*
X127302560Y-136550000D01*
X127302560Y-136712385D01*
X127229611Y-136536271D01*
X126999016Y-136480590D01*
X126279605Y-137200000D01*
X126999016Y-137919410D01*
X127229611Y-137863729D01*
X127302560Y-137654098D01*
X127302560Y-137850000D01*
X127346838Y-138085317D01*
X127485910Y-138301441D01*
X127698110Y-138446431D01*
X127950000Y-138497440D01*
X129250000Y-138497440D01*
X129485317Y-138453162D01*
X129668946Y-138335000D01*
X130005000Y-138335000D01*
X130005000Y-140999591D01*
X129948559Y-141035910D01*
X129803569Y-141248110D01*
X129752560Y-141500000D01*
X129752560Y-142900000D01*
X129796838Y-143135317D01*
X129935910Y-143351441D01*
X129965000Y-143371317D01*
X129965000Y-145315000D01*
X129936484Y-145315000D01*
X129687073Y-145065154D01*
X129086547Y-144815794D01*
X128436306Y-144815226D01*
X127835345Y-145063538D01*
X127375154Y-145522927D01*
X127125794Y-146123453D01*
X127125226Y-146773694D01*
X127373538Y-147374655D01*
X127832927Y-147834846D01*
X128433453Y-148084206D01*
X129083694Y-148084774D01*
X129684655Y-147836462D01*
X129936556Y-147585000D01*
X129965000Y-147585000D01*
X129965000Y-149751000D01*
X127394089Y-149751000D01*
X127369915Y-149707000D01*
X126227000Y-149707000D01*
X126227000Y-149727000D01*
X125973000Y-149727000D01*
X125973000Y-149707000D01*
X124830085Y-149707000D01*
X124708096Y-149929039D01*
X124793499Y-150135233D01*
X124783006Y-150150590D01*
X124773000Y-150200000D01*
X124773000Y-151530620D01*
X124746120Y-151570849D01*
X124636887Y-152120000D01*
X124746120Y-152669151D01*
X124773000Y-152709380D01*
X124773000Y-154154258D01*
X124708096Y-154310961D01*
X124773000Y-154429096D01*
X124773000Y-154890904D01*
X124708096Y-155009039D01*
X124773000Y-155165742D01*
X124773000Y-156046494D01*
X124703569Y-156148110D01*
X124652560Y-156400000D01*
X124652560Y-158000000D01*
X124696838Y-158235317D01*
X124835910Y-158451441D01*
X124965000Y-158539644D01*
X124965000Y-165598902D01*
X124460543Y-166102479D01*
X124165337Y-166813416D01*
X124164665Y-167583207D01*
X123034665Y-167583207D01*
X123035335Y-166816793D01*
X122741370Y-166105342D01*
X122235000Y-165598087D01*
X122235000Y-155700000D01*
X122227000Y-155659781D01*
X122227000Y-149230961D01*
X124708096Y-149230961D01*
X124830085Y-149453000D01*
X125973000Y-149453000D01*
X125973000Y-148309371D01*
X126227000Y-148309371D01*
X126227000Y-149453000D01*
X127369915Y-149453000D01*
X127491904Y-149230961D01*
X127331041Y-148842577D01*
X126955134Y-148427611D01*
X126449041Y-148188086D01*
X126227000Y-148309371D01*
X125973000Y-148309371D01*
X125750959Y-148188086D01*
X125244866Y-148427611D01*
X124868959Y-148842577D01*
X124708096Y-149230961D01*
X122227000Y-149230961D01*
X122227000Y-149200000D01*
X122224042Y-149172748D01*
X122203666Y-149126636D01*
X122166956Y-149092084D01*
X122157694Y-149088645D01*
X122235000Y-148700000D01*
X122235000Y-143378384D01*
X122478533Y-143135275D01*
X125344331Y-143135275D01*
X125406169Y-143371042D01*
X125907122Y-143547419D01*
X126437440Y-143518664D01*
X126793831Y-143371042D01*
X126855669Y-143135275D01*
X126100000Y-142379605D01*
X125344331Y-143135275D01*
X122478533Y-143135275D01*
X122484846Y-143128973D01*
X122734206Y-142528447D01*
X122734661Y-142007122D01*
X124752581Y-142007122D01*
X124781336Y-142537440D01*
X124928958Y-142893831D01*
X125164725Y-142955669D01*
X125920395Y-142200000D01*
X126279605Y-142200000D01*
X127035275Y-142955669D01*
X127271042Y-142893831D01*
X127447419Y-142392878D01*
X127418664Y-141862560D01*
X127271042Y-141506169D01*
X127035275Y-141444331D01*
X126279605Y-142200000D01*
X125920395Y-142200000D01*
X125164725Y-141444331D01*
X124928958Y-141506169D01*
X124752581Y-142007122D01*
X122734661Y-142007122D01*
X122734774Y-141878206D01*
X122486462Y-141277245D01*
X122473964Y-141264725D01*
X125344331Y-141264725D01*
X126100000Y-142020395D01*
X126855669Y-141264725D01*
X126793831Y-141028958D01*
X126292878Y-140852581D01*
X125762560Y-140881336D01*
X125406169Y-141028958D01*
X125344331Y-141264725D01*
X122473964Y-141264725D01*
X122027073Y-140817054D01*
X121426547Y-140567694D01*
X120776306Y-140567126D01*
X120175345Y-140815438D01*
X119715154Y-141274827D01*
X119465794Y-141875353D01*
X119465226Y-142525594D01*
X119473000Y-142544409D01*
X119473000Y-143073000D01*
X118600000Y-143073000D01*
X118553841Y-143081685D01*
X118511447Y-143108965D01*
X118483006Y-143150590D01*
X118473000Y-143200000D01*
X118473000Y-143565000D01*
X117028380Y-143565000D01*
X116777073Y-143313254D01*
X116176547Y-143063894D01*
X115526306Y-143063326D01*
X114925345Y-143311638D01*
X114465154Y-143771027D01*
X114215794Y-144371553D01*
X114215226Y-145021794D01*
X114223000Y-145040609D01*
X114223000Y-149355459D01*
X114215794Y-149372813D01*
X114215226Y-150023054D01*
X114463538Y-150624015D01*
X114788800Y-150949845D01*
X114673444Y-151065000D01*
X113570133Y-151065000D01*
X113235000Y-150729868D01*
X113235000Y-139170132D01*
X113907692Y-138497440D01*
X114250000Y-138497440D01*
X114485317Y-138453162D01*
X114701441Y-138314090D01*
X114846431Y-138101890D01*
X114847012Y-138099016D01*
X115380590Y-138099016D01*
X115436271Y-138329611D01*
X115919078Y-138497622D01*
X116429428Y-138468083D01*
X116707738Y-138352803D01*
X120127443Y-138352803D01*
X120226042Y-138619605D01*
X120835582Y-138846041D01*
X121485377Y-138821981D01*
X121973958Y-138619605D01*
X122072557Y-138352803D01*
X121100000Y-137380245D01*
X120127443Y-138352803D01*
X116707738Y-138352803D01*
X116763729Y-138329611D01*
X116819410Y-138099016D01*
X116100000Y-137379605D01*
X115380590Y-138099016D01*
X114847012Y-138099016D01*
X114897440Y-137850000D01*
X114897440Y-137687615D01*
X114970389Y-137863729D01*
X115200984Y-137919410D01*
X115920395Y-137200000D01*
X116279605Y-137200000D01*
X116999016Y-137919410D01*
X117229611Y-137863729D01*
X117397622Y-137380922D01*
X117371883Y-136936222D01*
X119454599Y-136936222D01*
X119478659Y-137586017D01*
X119681035Y-138074598D01*
X119947837Y-138173197D01*
X120920395Y-137200640D01*
X121279605Y-137200640D01*
X122252163Y-138173197D01*
X122452891Y-138099016D01*
X125380590Y-138099016D01*
X125436271Y-138329611D01*
X125919078Y-138497622D01*
X126429428Y-138468083D01*
X126763729Y-138329611D01*
X126819410Y-138099016D01*
X126100000Y-137379605D01*
X125380590Y-138099016D01*
X122452891Y-138099016D01*
X122518965Y-138074598D01*
X122745401Y-137465058D01*
X122728888Y-137019078D01*
X124802378Y-137019078D01*
X124831917Y-137529428D01*
X124970389Y-137863729D01*
X125200984Y-137919410D01*
X125920395Y-137200000D01*
X125200984Y-136480590D01*
X124970389Y-136536271D01*
X124802378Y-137019078D01*
X122728888Y-137019078D01*
X122721341Y-136815263D01*
X122518965Y-136326682D01*
X122449429Y-136300984D01*
X125380590Y-136300984D01*
X126100000Y-137020395D01*
X126819410Y-136300984D01*
X126763729Y-136070389D01*
X126280922Y-135902378D01*
X125770572Y-135931917D01*
X125436271Y-136070389D01*
X125380590Y-136300984D01*
X122449429Y-136300984D01*
X122252163Y-136228083D01*
X121279605Y-137200640D01*
X120920395Y-137200640D01*
X119947837Y-136228083D01*
X119681035Y-136326682D01*
X119454599Y-136936222D01*
X117371883Y-136936222D01*
X117368083Y-136870572D01*
X117229611Y-136536271D01*
X116999016Y-136480590D01*
X116279605Y-137200000D01*
X115920395Y-137200000D01*
X115906252Y-137185858D01*
X116085858Y-137006252D01*
X116100000Y-137020395D01*
X116819410Y-136300984D01*
X116763729Y-136070389D01*
X116700762Y-136048477D01*
X120127443Y-136048477D01*
X121100000Y-137021035D01*
X122072557Y-136048477D01*
X121973958Y-135781675D01*
X121364418Y-135555239D01*
X120714623Y-135579299D01*
X120226042Y-135781675D01*
X120127443Y-136048477D01*
X116700762Y-136048477D01*
X116280922Y-135902378D01*
X115770572Y-135931917D01*
X115436271Y-136070389D01*
X115380590Y-136300982D01*
X115265130Y-136185522D01*
X115235000Y-136215652D01*
X115235000Y-130370132D01*
X115288188Y-130316944D01*
X115477910Y-130443713D01*
X116100000Y-130567454D01*
X116722090Y-130443713D01*
X117249473Y-130091327D01*
X117601859Y-129563944D01*
X117725600Y-128941854D01*
X117725600Y-128027000D01*
X119474400Y-128027000D01*
X119474400Y-129017600D01*
X119646742Y-129630023D01*
X120040330Y-130129876D01*
X120595243Y-130441060D01*
X120721041Y-130471411D01*
X120973000Y-130351942D01*
X120973000Y-128027000D01*
X121227000Y-128027000D01*
X121227000Y-130351942D01*
X121478959Y-130471411D01*
X121604757Y-130441060D01*
X122159670Y-130129876D01*
X122553258Y-129630023D01*
X122725600Y-129017600D01*
X122725600Y-128027000D01*
X124474400Y-128027000D01*
X124474400Y-129017600D01*
X124646742Y-129630023D01*
X125040330Y-130129876D01*
X125595243Y-130441060D01*
X125721041Y-130471411D01*
X125973000Y-130351942D01*
X125973000Y-128027000D01*
X126227000Y-128027000D01*
X126227000Y-130351942D01*
X126478959Y-130471411D01*
X126604757Y-130441060D01*
X127159670Y-130129876D01*
X127553258Y-129630023D01*
X127725600Y-129017600D01*
X127725600Y-128027000D01*
X126227000Y-128027000D01*
X125973000Y-128027000D01*
X124474400Y-128027000D01*
X122725600Y-128027000D01*
X121227000Y-128027000D01*
X120973000Y-128027000D01*
X119474400Y-128027000D01*
X117725600Y-128027000D01*
X117725600Y-126858146D01*
X117710534Y-126782400D01*
X119474400Y-126782400D01*
X119474400Y-127773000D01*
X120973000Y-127773000D01*
X120973000Y-125448058D01*
X121227000Y-125448058D01*
X121227000Y-127773000D01*
X122725600Y-127773000D01*
X122725600Y-126782400D01*
X124474400Y-126782400D01*
X124474400Y-127773000D01*
X125973000Y-127773000D01*
X125973000Y-125448058D01*
X126227000Y-125448058D01*
X126227000Y-127773000D01*
X127725600Y-127773000D01*
X127725600Y-126782400D01*
X127553258Y-126169977D01*
X127159670Y-125670124D01*
X126604757Y-125358940D01*
X126478959Y-125328589D01*
X126227000Y-125448058D01*
X125973000Y-125448058D01*
X125721041Y-125328589D01*
X125595243Y-125358940D01*
X125040330Y-125670124D01*
X124646742Y-126169977D01*
X124474400Y-126782400D01*
X122725600Y-126782400D01*
X122553258Y-126169977D01*
X122159670Y-125670124D01*
X121604757Y-125358940D01*
X121478959Y-125328589D01*
X121227000Y-125448058D01*
X120973000Y-125448058D01*
X120721041Y-125328589D01*
X120595243Y-125358940D01*
X120040330Y-125670124D01*
X119646742Y-126169977D01*
X119474400Y-126782400D01*
X117710534Y-126782400D01*
X117601859Y-126236056D01*
X117249473Y-125708673D01*
X116722090Y-125356287D01*
X116100000Y-125232546D01*
X115477910Y-125356287D01*
X114950527Y-125708673D01*
X114598141Y-126236056D01*
X114474400Y-126858146D01*
X114474400Y-127920468D01*
X113297434Y-129097434D01*
X113051397Y-129465654D01*
X112965000Y-129900000D01*
X112965000Y-135902560D01*
X112950000Y-135902560D01*
X112714683Y-135946838D01*
X112498559Y-136085910D01*
X112353569Y-136298110D01*
X112302560Y-136550000D01*
X112302560Y-136892308D01*
X111297434Y-137897434D01*
X111051397Y-138265654D01*
X110965000Y-138700000D01*
X110965000Y-151200000D01*
X111051397Y-151634346D01*
X111213070Y-151876306D01*
X111297434Y-152002566D01*
X112297434Y-153002567D01*
X112665655Y-153248604D01*
X113100000Y-153335000D01*
X114673516Y-153335000D01*
X114922927Y-153584846D01*
X115523453Y-153834206D01*
X116173694Y-153834774D01*
X116221551Y-153815000D01*
X117011000Y-153815000D01*
X117011000Y-156065000D01*
X114026484Y-156065000D01*
X113777073Y-155815154D01*
X113176547Y-155565794D01*
X112526306Y-155565226D01*
X111925345Y-155813538D01*
X111673444Y-156065000D01*
X111276484Y-156065000D01*
X111027073Y-155815154D01*
X110426547Y-155565794D01*
X109776306Y-155565226D01*
X109175345Y-155813538D01*
X108715154Y-156272927D01*
X108465794Y-156873453D01*
X108465226Y-157523694D01*
X107175760Y-157523694D01*
X107210868Y-123807000D01*
X139272868Y-123807000D01*
X139223132Y-171573000D01*
G36*
X126227000Y-154533000D02*
X126247000Y-154533000D01*
X126247000Y-154787000D01*
X126227000Y-154787000D01*
X126227000Y-154807000D01*
X125973000Y-154807000D01*
X125973000Y-154787000D01*
X125727000Y-154787000D01*
X125727000Y-154533000D01*
X125973000Y-154533000D01*
X125973000Y-154513000D01*
X126227000Y-154513000D01*
X126227000Y-154533000D01*
X126227000Y-154533000D01*
G37*
X126227000Y-154533000D02*
X126247000Y-154533000D01*
X126247000Y-154787000D01*
X126227000Y-154787000D01*
X126227000Y-154807000D01*
X125973000Y-154807000D01*
X125973000Y-154787000D01*
X125727000Y-154787000D01*
X125727000Y-154533000D01*
X125973000Y-154533000D01*
X125973000Y-154513000D01*
X126227000Y-154513000D01*
X126227000Y-154533000D01*
G36*
X172523132Y-171673000D02*
X140461132Y-171673000D01*
X140475760Y-157623694D01*
X141765226Y-157623694D01*
X142013538Y-158224655D01*
X142472927Y-158684846D01*
X143073453Y-158934206D01*
X143723694Y-158934774D01*
X144324655Y-158686462D01*
X144576556Y-158435000D01*
X144973516Y-158435000D01*
X145222927Y-158684846D01*
X145823453Y-158934206D01*
X146473694Y-158934774D01*
X147074655Y-158686462D01*
X147326556Y-158435000D01*
X150917233Y-158435000D01*
X151202736Y-158625767D01*
X151622903Y-158709344D01*
X151654590Y-158730994D01*
X151704000Y-158741000D01*
X153265000Y-158741000D01*
X153265000Y-165698902D01*
X152798087Y-166165000D01*
X150326484Y-166165000D01*
X150077073Y-165915154D01*
X149476547Y-165665794D01*
X148826306Y-165665226D01*
X148225345Y-165913538D01*
X147973444Y-166165000D01*
X147166762Y-166165000D01*
X147077073Y-166075154D01*
X146476547Y-165825794D01*
X145826306Y-165825226D01*
X145225345Y-166073538D01*
X144973444Y-166325000D01*
X144576484Y-166325000D01*
X144327073Y-166075154D01*
X143726547Y-165825794D01*
X143076306Y-165825226D01*
X142475345Y-166073538D01*
X142015154Y-166532927D01*
X141765794Y-167133453D01*
X141765226Y-167783694D01*
X142013538Y-168384655D01*
X142472927Y-168844846D01*
X143073453Y-169094206D01*
X143723694Y-169094774D01*
X144324655Y-168846462D01*
X144576556Y-168595000D01*
X144973516Y-168595000D01*
X145222927Y-168844846D01*
X145823453Y-169094206D01*
X146473694Y-169094774D01*
X147074655Y-168846462D01*
X147486835Y-168435000D01*
X147973516Y-168435000D01*
X148222927Y-168684846D01*
X148823453Y-168934206D01*
X149473694Y-168934774D01*
X150074655Y-168686462D01*
X150326556Y-168435000D01*
X152798902Y-168435000D01*
X153302479Y-168939457D01*
X154013416Y-169234663D01*
X154783207Y-169235335D01*
X155494658Y-168941370D01*
X156039457Y-168397521D01*
X156334663Y-167686584D01*
X156334665Y-167683207D01*
X157464665Y-167683207D01*
X157758630Y-168394658D01*
X158302479Y-168939457D01*
X159013416Y-169234663D01*
X159783207Y-169235335D01*
X160494658Y-168941370D01*
X160801563Y-168635000D01*
X162969832Y-168635000D01*
X163102459Y-168833491D01*
X163697776Y-169231269D01*
X164400000Y-169370950D01*
X165102224Y-169231269D01*
X165697541Y-168833491D01*
X166095319Y-168238174D01*
X166235000Y-167535950D01*
X166235000Y-167464050D01*
X166095319Y-166761826D01*
X165697541Y-166166509D01*
X165102224Y-165768731D01*
X164400000Y-165629050D01*
X163697776Y-165768731D01*
X163102459Y-166166509D01*
X162969832Y-166365000D01*
X161107339Y-166365000D01*
X161041370Y-166205342D01*
X160535000Y-165698087D01*
X160535000Y-158639018D01*
X160651441Y-158564090D01*
X160796431Y-158351890D01*
X160847440Y-158100000D01*
X160847440Y-156500000D01*
X160833704Y-156427000D01*
X162720183Y-156427000D01*
X162735910Y-156451441D01*
X162948110Y-156596431D01*
X163200000Y-156647440D01*
X165600000Y-156647440D01*
X165835317Y-156603162D01*
X166051441Y-156464090D01*
X166196431Y-156251890D01*
X166247440Y-156000000D01*
X166247440Y-153661000D01*
X167452000Y-153661000D01*
X167498159Y-153652315D01*
X167540553Y-153625035D01*
X167568994Y-153583410D01*
X167579000Y-153534000D01*
X167579000Y-153477185D01*
X167593831Y-153471042D01*
X167655669Y-153235275D01*
X166900000Y-152479605D01*
X166885858Y-152493748D01*
X166706252Y-152314142D01*
X166720395Y-152300000D01*
X167079605Y-152300000D01*
X167835275Y-153055669D01*
X168071042Y-152993831D01*
X168247419Y-152492878D01*
X168218664Y-151962560D01*
X168071042Y-151606169D01*
X167835275Y-151544331D01*
X167079605Y-152300000D01*
X166720395Y-152300000D01*
X165964725Y-151544331D01*
X165910230Y-151558624D01*
X165716331Y-151364725D01*
X166144331Y-151364725D01*
X166900000Y-152120395D01*
X167655669Y-151364725D01*
X167593831Y-151128958D01*
X167092878Y-150952581D01*
X166562560Y-150981336D01*
X166206169Y-151128958D01*
X166144331Y-151364725D01*
X165716331Y-151364725D01*
X165535000Y-151183394D01*
X165535000Y-143474669D01*
X165551441Y-143464090D01*
X165696431Y-143251890D01*
X165747440Y-143000000D01*
X165747440Y-141600000D01*
X165703162Y-141364683D01*
X165575000Y-141165514D01*
X165575000Y-130153123D01*
X165901859Y-129663944D01*
X166025600Y-129041854D01*
X166025600Y-126958146D01*
X165901859Y-126336056D01*
X165549473Y-125808673D01*
X165022090Y-125456287D01*
X164400000Y-125332546D01*
X163777910Y-125456287D01*
X163250527Y-125808673D01*
X162898141Y-126336056D01*
X162774400Y-126958146D01*
X162774400Y-129041854D01*
X162898141Y-129663944D01*
X163250527Y-130191327D01*
X163305000Y-130227725D01*
X163305000Y-136165000D01*
X162964975Y-136165000D01*
X162801890Y-136053569D01*
X162550000Y-136002560D01*
X161250000Y-136002560D01*
X161014683Y-136046838D01*
X160798559Y-136185910D01*
X160653569Y-136398110D01*
X160602560Y-136650000D01*
X160602560Y-136812385D01*
X160529611Y-136636271D01*
X160299016Y-136580590D01*
X159579605Y-137300000D01*
X160299016Y-138019410D01*
X160529611Y-137963729D01*
X160602560Y-137754098D01*
X160602560Y-137950000D01*
X160646838Y-138185317D01*
X160785910Y-138401441D01*
X160998110Y-138546431D01*
X161250000Y-138597440D01*
X162550000Y-138597440D01*
X162785317Y-138553162D01*
X162968946Y-138435000D01*
X163305000Y-138435000D01*
X163305000Y-141099591D01*
X163248559Y-141135910D01*
X163103569Y-141348110D01*
X163052560Y-141600000D01*
X163052560Y-143000000D01*
X163096838Y-143235317D01*
X163235910Y-143451441D01*
X163265000Y-143471317D01*
X163265000Y-145415000D01*
X163236484Y-145415000D01*
X162987073Y-145165154D01*
X162386547Y-144915794D01*
X161736306Y-144915226D01*
X161135345Y-145163538D01*
X160675154Y-145622927D01*
X160425794Y-146223453D01*
X160425226Y-146873694D01*
X160673538Y-147474655D01*
X161132927Y-147934846D01*
X161733453Y-148184206D01*
X162383694Y-148184774D01*
X162984655Y-147936462D01*
X163236556Y-147685000D01*
X163265000Y-147685000D01*
X163265000Y-149851000D01*
X160694089Y-149851000D01*
X160669915Y-149807000D01*
X159527000Y-149807000D01*
X159527000Y-149827000D01*
X159273000Y-149827000D01*
X159273000Y-149807000D01*
X158130085Y-149807000D01*
X158008096Y-150029039D01*
X158093499Y-150235233D01*
X158083006Y-150250590D01*
X158073000Y-150300000D01*
X158073000Y-151630620D01*
X158046120Y-151670849D01*
X157936887Y-152220000D01*
X158046120Y-152769151D01*
X158073000Y-152809380D01*
X158073000Y-154254258D01*
X158008096Y-154410961D01*
X158073000Y-154529096D01*
X158073000Y-154990904D01*
X158008096Y-155109039D01*
X158073000Y-155265742D01*
X158073000Y-156146494D01*
X158003569Y-156248110D01*
X157952560Y-156500000D01*
X157952560Y-158100000D01*
X157996838Y-158335317D01*
X158135910Y-158551441D01*
X158265000Y-158639644D01*
X158265000Y-165698902D01*
X157760543Y-166202479D01*
X157465337Y-166913416D01*
X157464665Y-167683207D01*
X156334665Y-167683207D01*
X156335335Y-166916793D01*
X156041370Y-166205342D01*
X155535000Y-165698087D01*
X155535000Y-155800000D01*
X155527000Y-155759781D01*
X155527000Y-149330961D01*
X158008096Y-149330961D01*
X158130085Y-149553000D01*
X159273000Y-149553000D01*
X159273000Y-148409371D01*
X159527000Y-148409371D01*
X159527000Y-149553000D01*
X160669915Y-149553000D01*
X160791904Y-149330961D01*
X160631041Y-148942577D01*
X160255134Y-148527611D01*
X159749041Y-148288086D01*
X159527000Y-148409371D01*
X159273000Y-148409371D01*
X159050959Y-148288086D01*
X158544866Y-148527611D01*
X158168959Y-148942577D01*
X158008096Y-149330961D01*
X155527000Y-149330961D01*
X155527000Y-149300000D01*
X155524042Y-149272748D01*
X155503666Y-149226636D01*
X155466956Y-149192084D01*
X155457694Y-149188645D01*
X155535000Y-148800000D01*
X155535000Y-143478384D01*
X155778533Y-143235275D01*
X158644331Y-143235275D01*
X158706169Y-143471042D01*
X159207122Y-143647419D01*
X159737440Y-143618664D01*
X160093831Y-143471042D01*
X160155669Y-143235275D01*
X159400000Y-142479605D01*
X158644331Y-143235275D01*
X155778533Y-143235275D01*
X155784846Y-143228973D01*
X156034206Y-142628447D01*
X156034661Y-142107122D01*
X158052581Y-142107122D01*
X158081336Y-142637440D01*
X158228958Y-142993831D01*
X158464725Y-143055669D01*
X159220395Y-142300000D01*
X159579605Y-142300000D01*
X160335275Y-143055669D01*
X160571042Y-142993831D01*
X160747419Y-142492878D01*
X160718664Y-141962560D01*
X160571042Y-141606169D01*
X160335275Y-141544331D01*
X159579605Y-142300000D01*
X159220395Y-142300000D01*
X158464725Y-141544331D01*
X158228958Y-141606169D01*
X158052581Y-142107122D01*
X156034661Y-142107122D01*
X156034774Y-141978206D01*
X155786462Y-141377245D01*
X155773964Y-141364725D01*
X158644331Y-141364725D01*
X159400000Y-142120395D01*
X160155669Y-141364725D01*
X160093831Y-141128958D01*
X159592878Y-140952581D01*
X159062560Y-140981336D01*
X158706169Y-141128958D01*
X158644331Y-141364725D01*
X155773964Y-141364725D01*
X155327073Y-140917054D01*
X154726547Y-140667694D01*
X154076306Y-140667126D01*
X153475345Y-140915438D01*
X153015154Y-141374827D01*
X152765794Y-141975353D01*
X152765226Y-142625594D01*
X152773000Y-142644409D01*
X152773000Y-143173000D01*
X151900000Y-143173000D01*
X151853841Y-143181685D01*
X151811447Y-143208965D01*
X151783006Y-143250590D01*
X151773000Y-143300000D01*
X151773000Y-143665000D01*
X150328380Y-143665000D01*
X150077073Y-143413254D01*
X149476547Y-143163894D01*
X148826306Y-143163326D01*
X148225345Y-143411638D01*
X147765154Y-143871027D01*
X147515794Y-144471553D01*
X147515226Y-145121794D01*
X147523000Y-145140609D01*
X147523000Y-149455459D01*
X147515794Y-149472813D01*
X147515226Y-150123054D01*
X147763538Y-150724015D01*
X148088800Y-151049845D01*
X147973444Y-151165000D01*
X146870133Y-151165000D01*
X146535000Y-150829868D01*
X146535000Y-139270132D01*
X147207692Y-138597440D01*
X147550000Y-138597440D01*
X147785317Y-138553162D01*
X148001441Y-138414090D01*
X148146431Y-138201890D01*
X148147012Y-138199016D01*
X148680590Y-138199016D01*
X148736271Y-138429611D01*
X149219078Y-138597622D01*
X149729428Y-138568083D01*
X150007738Y-138452803D01*
X153427443Y-138452803D01*
X153526042Y-138719605D01*
X154135582Y-138946041D01*
X154785377Y-138921981D01*
X155273958Y-138719605D01*
X155372557Y-138452803D01*
X154400000Y-137480245D01*
X153427443Y-138452803D01*
X150007738Y-138452803D01*
X150063729Y-138429611D01*
X150119410Y-138199016D01*
X149400000Y-137479605D01*
X148680590Y-138199016D01*
X148147012Y-138199016D01*
X148197440Y-137950000D01*
X148197440Y-137787615D01*
X148270389Y-137963729D01*
X148500984Y-138019410D01*
X149220395Y-137300000D01*
X149579605Y-137300000D01*
X150299016Y-138019410D01*
X150529611Y-137963729D01*
X150697622Y-137480922D01*
X150671883Y-137036222D01*
X152754599Y-137036222D01*
X152778659Y-137686017D01*
X152981035Y-138174598D01*
X153247837Y-138273197D01*
X154220395Y-137300640D01*
X154579605Y-137300640D01*
X155552163Y-138273197D01*
X155752891Y-138199016D01*
X158680590Y-138199016D01*
X158736271Y-138429611D01*
X159219078Y-138597622D01*
X159729428Y-138568083D01*
X160063729Y-138429611D01*
X160119410Y-138199016D01*
X159400000Y-137479605D01*
X158680590Y-138199016D01*
X155752891Y-138199016D01*
X155818965Y-138174598D01*
X156045401Y-137565058D01*
X156028888Y-137119078D01*
X158102378Y-137119078D01*
X158131917Y-137629428D01*
X158270389Y-137963729D01*
X158500984Y-138019410D01*
X159220395Y-137300000D01*
X158500984Y-136580590D01*
X158270389Y-136636271D01*
X158102378Y-137119078D01*
X156028888Y-137119078D01*
X156021341Y-136915263D01*
X155818965Y-136426682D01*
X155749429Y-136400984D01*
X158680590Y-136400984D01*
X159400000Y-137120395D01*
X160119410Y-136400984D01*
X160063729Y-136170389D01*
X159580922Y-136002378D01*
X159070572Y-136031917D01*
X158736271Y-136170389D01*
X158680590Y-136400984D01*
X155749429Y-136400984D01*
X155552163Y-136328083D01*
X154579605Y-137300640D01*
X154220395Y-137300640D01*
X153247837Y-136328083D01*
X152981035Y-136426682D01*
X152754599Y-137036222D01*
X150671883Y-137036222D01*
X150668083Y-136970572D01*
X150529611Y-136636271D01*
X150299016Y-136580590D01*
X149579605Y-137300000D01*
X149220395Y-137300000D01*
X149206252Y-137285858D01*
X149385858Y-137106252D01*
X149400000Y-137120395D01*
X150119410Y-136400984D01*
X150063729Y-136170389D01*
X150000762Y-136148477D01*
X153427443Y-136148477D01*
X154400000Y-137121035D01*
X155372557Y-136148477D01*
X155273958Y-135881675D01*
X154664418Y-135655239D01*
X154014623Y-135679299D01*
X153526042Y-135881675D01*
X153427443Y-136148477D01*
X150000762Y-136148477D01*
X149580922Y-136002378D01*
X149070572Y-136031917D01*
X148736271Y-136170389D01*
X148680590Y-136400982D01*
X148565130Y-136285522D01*
X148535000Y-136315652D01*
X148535000Y-130470132D01*
X148588188Y-130416944D01*
X148777910Y-130543713D01*
X149400000Y-130667454D01*
X150022090Y-130543713D01*
X150549473Y-130191327D01*
X150901859Y-129663944D01*
X151025600Y-129041854D01*
X151025600Y-128127000D01*
X152774400Y-128127000D01*
X152774400Y-129117600D01*
X152946742Y-129730023D01*
X153340330Y-130229876D01*
X153895243Y-130541060D01*
X154021041Y-130571411D01*
X154273000Y-130451942D01*
X154273000Y-128127000D01*
X154527000Y-128127000D01*
X154527000Y-130451942D01*
X154778959Y-130571411D01*
X154904757Y-130541060D01*
X155459670Y-130229876D01*
X155853258Y-129730023D01*
X156025600Y-129117600D01*
X156025600Y-128127000D01*
X157774400Y-128127000D01*
X157774400Y-129117600D01*
X157946742Y-129730023D01*
X158340330Y-130229876D01*
X158895243Y-130541060D01*
X159021041Y-130571411D01*
X159273000Y-130451942D01*
X159273000Y-128127000D01*
X159527000Y-128127000D01*
X159527000Y-130451942D01*
X159778959Y-130571411D01*
X159904757Y-130541060D01*
X160459670Y-130229876D01*
X160853258Y-129730023D01*
X161025600Y-129117600D01*
X161025600Y-128127000D01*
X159527000Y-128127000D01*
X159273000Y-128127000D01*
X157774400Y-128127000D01*
X156025600Y-128127000D01*
X154527000Y-128127000D01*
X154273000Y-128127000D01*
X152774400Y-128127000D01*
X151025600Y-128127000D01*
X151025600Y-126958146D01*
X151010534Y-126882400D01*
X152774400Y-126882400D01*
X152774400Y-127873000D01*
X154273000Y-127873000D01*
X154273000Y-125548058D01*
X154527000Y-125548058D01*
X154527000Y-127873000D01*
X156025600Y-127873000D01*
X156025600Y-126882400D01*
X157774400Y-126882400D01*
X157774400Y-127873000D01*
X159273000Y-127873000D01*
X159273000Y-125548058D01*
X159527000Y-125548058D01*
X159527000Y-127873000D01*
X161025600Y-127873000D01*
X161025600Y-126882400D01*
X160853258Y-126269977D01*
X160459670Y-125770124D01*
X159904757Y-125458940D01*
X159778959Y-125428589D01*
X159527000Y-125548058D01*
X159273000Y-125548058D01*
X159021041Y-125428589D01*
X158895243Y-125458940D01*
X158340330Y-125770124D01*
X157946742Y-126269977D01*
X157774400Y-126882400D01*
X156025600Y-126882400D01*
X155853258Y-126269977D01*
X155459670Y-125770124D01*
X154904757Y-125458940D01*
X154778959Y-125428589D01*
X154527000Y-125548058D01*
X154273000Y-125548058D01*
X154021041Y-125428589D01*
X153895243Y-125458940D01*
X153340330Y-125770124D01*
X152946742Y-126269977D01*
X152774400Y-126882400D01*
X151010534Y-126882400D01*
X150901859Y-126336056D01*
X150549473Y-125808673D01*
X150022090Y-125456287D01*
X149400000Y-125332546D01*
X148777910Y-125456287D01*
X148250527Y-125808673D01*
X147898141Y-126336056D01*
X147774400Y-126958146D01*
X147774400Y-128020468D01*
X146597434Y-129197434D01*
X146351397Y-129565654D01*
X146265000Y-130000000D01*
X146265000Y-136002560D01*
X146250000Y-136002560D01*
X146014683Y-136046838D01*
X145798559Y-136185910D01*
X145653569Y-136398110D01*
X145602560Y-136650000D01*
X145602560Y-136992308D01*
X144597434Y-137997434D01*
X144351397Y-138365654D01*
X144265000Y-138800000D01*
X144265000Y-151300000D01*
X144351397Y-151734346D01*
X144513070Y-151976306D01*
X144597434Y-152102566D01*
X145597434Y-153102567D01*
X145965655Y-153348604D01*
X146400000Y-153435000D01*
X147973516Y-153435000D01*
X148222927Y-153684846D01*
X148823453Y-153934206D01*
X149473694Y-153934774D01*
X149521551Y-153915000D01*
X150311000Y-153915000D01*
X150311000Y-156165000D01*
X147326484Y-156165000D01*
X147077073Y-155915154D01*
X146476547Y-155665794D01*
X145826306Y-155665226D01*
X145225345Y-155913538D01*
X144973444Y-156165000D01*
X144576484Y-156165000D01*
X144327073Y-155915154D01*
X143726547Y-155665794D01*
X143076306Y-155665226D01*
X142475345Y-155913538D01*
X142015154Y-156372927D01*
X141765794Y-156973453D01*
X141765226Y-157623694D01*
X140475760Y-157623694D01*
X140510868Y-123907000D01*
X172572868Y-123907000D01*
X172523132Y-171673000D01*
X172523132Y-171673000D01*
G37*
X172523132Y-171673000D02*
X140461132Y-171673000D01*
X140475760Y-157623694D01*
X141765226Y-157623694D01*
X142013538Y-158224655D01*
X142472927Y-158684846D01*
X143073453Y-158934206D01*
X143723694Y-158934774D01*
X144324655Y-158686462D01*
X144576556Y-158435000D01*
X144973516Y-158435000D01*
X145222927Y-158684846D01*
X145823453Y-158934206D01*
X146473694Y-158934774D01*
X147074655Y-158686462D01*
X147326556Y-158435000D01*
X150917233Y-158435000D01*
X151202736Y-158625767D01*
X151622903Y-158709344D01*
X151654590Y-158730994D01*
X151704000Y-158741000D01*
X153265000Y-158741000D01*
X153265000Y-165698902D01*
X152798087Y-166165000D01*
X150326484Y-166165000D01*
X150077073Y-165915154D01*
X149476547Y-165665794D01*
X148826306Y-165665226D01*
X148225345Y-165913538D01*
X147973444Y-166165000D01*
X147166762Y-166165000D01*
X147077073Y-166075154D01*
X146476547Y-165825794D01*
X145826306Y-165825226D01*
X145225345Y-166073538D01*
X144973444Y-166325000D01*
X144576484Y-166325000D01*
X144327073Y-166075154D01*
X143726547Y-165825794D01*
X143076306Y-165825226D01*
X142475345Y-166073538D01*
X142015154Y-166532927D01*
X141765794Y-167133453D01*
X141765226Y-167783694D01*
X142013538Y-168384655D01*
X142472927Y-168844846D01*
X143073453Y-169094206D01*
X143723694Y-169094774D01*
X144324655Y-168846462D01*
X144576556Y-168595000D01*
X144973516Y-168595000D01*
X145222927Y-168844846D01*
X145823453Y-169094206D01*
X146473694Y-169094774D01*
X147074655Y-168846462D01*
X147486835Y-168435000D01*
X147973516Y-168435000D01*
X148222927Y-168684846D01*
X148823453Y-168934206D01*
X149473694Y-168934774D01*
X150074655Y-168686462D01*
X150326556Y-168435000D01*
X152798902Y-168435000D01*
X153302479Y-168939457D01*
X154013416Y-169234663D01*
X154783207Y-169235335D01*
X155494658Y-168941370D01*
X156039457Y-168397521D01*
X156334663Y-167686584D01*
X156334665Y-167683207D01*
X157464665Y-167683207D01*
X157758630Y-168394658D01*
X158302479Y-168939457D01*
X159013416Y-169234663D01*
X159783207Y-169235335D01*
X160494658Y-168941370D01*
X160801563Y-168635000D01*
X162969832Y-168635000D01*
X163102459Y-168833491D01*
X163697776Y-169231269D01*
X164400000Y-169370950D01*
X165102224Y-169231269D01*
X165697541Y-168833491D01*
X166095319Y-168238174D01*
X166235000Y-167535950D01*
X166235000Y-167464050D01*
X166095319Y-166761826D01*
X165697541Y-166166509D01*
X165102224Y-165768731D01*
X164400000Y-165629050D01*
X163697776Y-165768731D01*
X163102459Y-166166509D01*
X162969832Y-166365000D01*
X161107339Y-166365000D01*
X161041370Y-166205342D01*
X160535000Y-165698087D01*
X160535000Y-158639018D01*
X160651441Y-158564090D01*
X160796431Y-158351890D01*
X160847440Y-158100000D01*
X160847440Y-156500000D01*
X160833704Y-156427000D01*
X162720183Y-156427000D01*
X162735910Y-156451441D01*
X162948110Y-156596431D01*
X163200000Y-156647440D01*
X165600000Y-156647440D01*
X165835317Y-156603162D01*
X166051441Y-156464090D01*
X166196431Y-156251890D01*
X166247440Y-156000000D01*
X166247440Y-153661000D01*
X167452000Y-153661000D01*
X167498159Y-153652315D01*
X167540553Y-153625035D01*
X167568994Y-153583410D01*
X167579000Y-153534000D01*
X167579000Y-153477185D01*
X167593831Y-153471042D01*
X167655669Y-153235275D01*
X166900000Y-152479605D01*
X166885858Y-152493748D01*
X166706252Y-152314142D01*
X166720395Y-152300000D01*
X167079605Y-152300000D01*
X167835275Y-153055669D01*
X168071042Y-152993831D01*
X168247419Y-152492878D01*
X168218664Y-151962560D01*
X168071042Y-151606169D01*
X167835275Y-151544331D01*
X167079605Y-152300000D01*
X166720395Y-152300000D01*
X165964725Y-151544331D01*
X165910230Y-151558624D01*
X165716331Y-151364725D01*
X166144331Y-151364725D01*
X166900000Y-152120395D01*
X167655669Y-151364725D01*
X167593831Y-151128958D01*
X167092878Y-150952581D01*
X166562560Y-150981336D01*
X166206169Y-151128958D01*
X166144331Y-151364725D01*
X165716331Y-151364725D01*
X165535000Y-151183394D01*
X165535000Y-143474669D01*
X165551441Y-143464090D01*
X165696431Y-143251890D01*
X165747440Y-143000000D01*
X165747440Y-141600000D01*
X165703162Y-141364683D01*
X165575000Y-141165514D01*
X165575000Y-130153123D01*
X165901859Y-129663944D01*
X166025600Y-129041854D01*
X166025600Y-126958146D01*
X165901859Y-126336056D01*
X165549473Y-125808673D01*
X165022090Y-125456287D01*
X164400000Y-125332546D01*
X163777910Y-125456287D01*
X163250527Y-125808673D01*
X162898141Y-126336056D01*
X162774400Y-126958146D01*
X162774400Y-129041854D01*
X162898141Y-129663944D01*
X163250527Y-130191327D01*
X163305000Y-130227725D01*
X163305000Y-136165000D01*
X162964975Y-136165000D01*
X162801890Y-136053569D01*
X162550000Y-136002560D01*
X161250000Y-136002560D01*
X161014683Y-136046838D01*
X160798559Y-136185910D01*
X160653569Y-136398110D01*
X160602560Y-136650000D01*
X160602560Y-136812385D01*
X160529611Y-136636271D01*
X160299016Y-136580590D01*
X159579605Y-137300000D01*
X160299016Y-138019410D01*
X160529611Y-137963729D01*
X160602560Y-137754098D01*
X160602560Y-137950000D01*
X160646838Y-138185317D01*
X160785910Y-138401441D01*
X160998110Y-138546431D01*
X161250000Y-138597440D01*
X162550000Y-138597440D01*
X162785317Y-138553162D01*
X162968946Y-138435000D01*
X163305000Y-138435000D01*
X163305000Y-141099591D01*
X163248559Y-141135910D01*
X163103569Y-141348110D01*
X163052560Y-141600000D01*
X163052560Y-143000000D01*
X163096838Y-143235317D01*
X163235910Y-143451441D01*
X163265000Y-143471317D01*
X163265000Y-145415000D01*
X163236484Y-145415000D01*
X162987073Y-145165154D01*
X162386547Y-144915794D01*
X161736306Y-144915226D01*
X161135345Y-145163538D01*
X160675154Y-145622927D01*
X160425794Y-146223453D01*
X160425226Y-146873694D01*
X160673538Y-147474655D01*
X161132927Y-147934846D01*
X161733453Y-148184206D01*
X162383694Y-148184774D01*
X162984655Y-147936462D01*
X163236556Y-147685000D01*
X163265000Y-147685000D01*
X163265000Y-149851000D01*
X160694089Y-149851000D01*
X160669915Y-149807000D01*
X159527000Y-149807000D01*
X159527000Y-149827000D01*
X159273000Y-149827000D01*
X159273000Y-149807000D01*
X158130085Y-149807000D01*
X158008096Y-150029039D01*
X158093499Y-150235233D01*
X158083006Y-150250590D01*
X158073000Y-150300000D01*
X158073000Y-151630620D01*
X158046120Y-151670849D01*
X157936887Y-152220000D01*
X158046120Y-152769151D01*
X158073000Y-152809380D01*
X158073000Y-154254258D01*
X158008096Y-154410961D01*
X158073000Y-154529096D01*
X158073000Y-154990904D01*
X158008096Y-155109039D01*
X158073000Y-155265742D01*
X158073000Y-156146494D01*
X158003569Y-156248110D01*
X157952560Y-156500000D01*
X157952560Y-158100000D01*
X157996838Y-158335317D01*
X158135910Y-158551441D01*
X158265000Y-158639644D01*
X158265000Y-165698902D01*
X157760543Y-166202479D01*
X157465337Y-166913416D01*
X157464665Y-167683207D01*
X156334665Y-167683207D01*
X156335335Y-166916793D01*
X156041370Y-166205342D01*
X155535000Y-165698087D01*
X155535000Y-155800000D01*
X155527000Y-155759781D01*
X155527000Y-149330961D01*
X158008096Y-149330961D01*
X158130085Y-149553000D01*
X159273000Y-149553000D01*
X159273000Y-148409371D01*
X159527000Y-148409371D01*
X159527000Y-149553000D01*
X160669915Y-149553000D01*
X160791904Y-149330961D01*
X160631041Y-148942577D01*
X160255134Y-148527611D01*
X159749041Y-148288086D01*
X159527000Y-148409371D01*
X159273000Y-148409371D01*
X159050959Y-148288086D01*
X158544866Y-148527611D01*
X158168959Y-148942577D01*
X158008096Y-149330961D01*
X155527000Y-149330961D01*
X155527000Y-149300000D01*
X155524042Y-149272748D01*
X155503666Y-149226636D01*
X155466956Y-149192084D01*
X155457694Y-149188645D01*
X155535000Y-148800000D01*
X155535000Y-143478384D01*
X155778533Y-143235275D01*
X158644331Y-143235275D01*
X158706169Y-143471042D01*
X159207122Y-143647419D01*
X159737440Y-143618664D01*
X160093831Y-143471042D01*
X160155669Y-143235275D01*
X159400000Y-142479605D01*
X158644331Y-143235275D01*
X155778533Y-143235275D01*
X155784846Y-143228973D01*
X156034206Y-142628447D01*
X156034661Y-142107122D01*
X158052581Y-142107122D01*
X158081336Y-142637440D01*
X158228958Y-142993831D01*
X158464725Y-143055669D01*
X159220395Y-142300000D01*
X159579605Y-142300000D01*
X160335275Y-143055669D01*
X160571042Y-142993831D01*
X160747419Y-142492878D01*
X160718664Y-141962560D01*
X160571042Y-141606169D01*
X160335275Y-141544331D01*
X159579605Y-142300000D01*
X159220395Y-142300000D01*
X158464725Y-141544331D01*
X158228958Y-141606169D01*
X158052581Y-142107122D01*
X156034661Y-142107122D01*
X156034774Y-141978206D01*
X155786462Y-141377245D01*
X155773964Y-141364725D01*
X158644331Y-141364725D01*
X159400000Y-142120395D01*
X160155669Y-141364725D01*
X160093831Y-141128958D01*
X159592878Y-140952581D01*
X159062560Y-140981336D01*
X158706169Y-141128958D01*
X158644331Y-141364725D01*
X155773964Y-141364725D01*
X155327073Y-140917054D01*
X154726547Y-140667694D01*
X154076306Y-140667126D01*
X153475345Y-140915438D01*
X153015154Y-141374827D01*
X152765794Y-141975353D01*
X152765226Y-142625594D01*
X152773000Y-142644409D01*
X152773000Y-143173000D01*
X151900000Y-143173000D01*
X151853841Y-143181685D01*
X151811447Y-143208965D01*
X151783006Y-143250590D01*
X151773000Y-143300000D01*
X151773000Y-143665000D01*
X150328380Y-143665000D01*
X150077073Y-143413254D01*
X149476547Y-143163894D01*
X148826306Y-143163326D01*
X148225345Y-143411638D01*
X147765154Y-143871027D01*
X147515794Y-144471553D01*
X147515226Y-145121794D01*
X147523000Y-145140609D01*
X147523000Y-149455459D01*
X147515794Y-149472813D01*
X147515226Y-150123054D01*
X147763538Y-150724015D01*
X148088800Y-151049845D01*
X147973444Y-151165000D01*
X146870133Y-151165000D01*
X146535000Y-150829868D01*
X146535000Y-139270132D01*
X147207692Y-138597440D01*
X147550000Y-138597440D01*
X147785317Y-138553162D01*
X148001441Y-138414090D01*
X148146431Y-138201890D01*
X148147012Y-138199016D01*
X148680590Y-138199016D01*
X148736271Y-138429611D01*
X149219078Y-138597622D01*
X149729428Y-138568083D01*
X150007738Y-138452803D01*
X153427443Y-138452803D01*
X153526042Y-138719605D01*
X154135582Y-138946041D01*
X154785377Y-138921981D01*
X155273958Y-138719605D01*
X155372557Y-138452803D01*
X154400000Y-137480245D01*
X153427443Y-138452803D01*
X150007738Y-138452803D01*
X150063729Y-138429611D01*
X150119410Y-138199016D01*
X149400000Y-137479605D01*
X148680590Y-138199016D01*
X148147012Y-138199016D01*
X148197440Y-137950000D01*
X148197440Y-137787615D01*
X148270389Y-137963729D01*
X148500984Y-138019410D01*
X149220395Y-137300000D01*
X149579605Y-137300000D01*
X150299016Y-138019410D01*
X150529611Y-137963729D01*
X150697622Y-137480922D01*
X150671883Y-137036222D01*
X152754599Y-137036222D01*
X152778659Y-137686017D01*
X152981035Y-138174598D01*
X153247837Y-138273197D01*
X154220395Y-137300640D01*
X154579605Y-137300640D01*
X155552163Y-138273197D01*
X155752891Y-138199016D01*
X158680590Y-138199016D01*
X158736271Y-138429611D01*
X159219078Y-138597622D01*
X159729428Y-138568083D01*
X160063729Y-138429611D01*
X160119410Y-138199016D01*
X159400000Y-137479605D01*
X158680590Y-138199016D01*
X155752891Y-138199016D01*
X155818965Y-138174598D01*
X156045401Y-137565058D01*
X156028888Y-137119078D01*
X158102378Y-137119078D01*
X158131917Y-137629428D01*
X158270389Y-137963729D01*
X158500984Y-138019410D01*
X159220395Y-137300000D01*
X158500984Y-136580590D01*
X158270389Y-136636271D01*
X158102378Y-137119078D01*
X156028888Y-137119078D01*
X156021341Y-136915263D01*
X155818965Y-136426682D01*
X155749429Y-136400984D01*
X158680590Y-136400984D01*
X159400000Y-137120395D01*
X160119410Y-136400984D01*
X160063729Y-136170389D01*
X159580922Y-136002378D01*
X159070572Y-136031917D01*
X158736271Y-136170389D01*
X158680590Y-136400984D01*
X155749429Y-136400984D01*
X155552163Y-136328083D01*
X154579605Y-137300640D01*
X154220395Y-137300640D01*
X153247837Y-136328083D01*
X152981035Y-136426682D01*
X152754599Y-137036222D01*
X150671883Y-137036222D01*
X150668083Y-136970572D01*
X150529611Y-136636271D01*
X150299016Y-136580590D01*
X149579605Y-137300000D01*
X149220395Y-137300000D01*
X149206252Y-137285858D01*
X149385858Y-137106252D01*
X149400000Y-137120395D01*
X150119410Y-136400984D01*
X150063729Y-136170389D01*
X150000762Y-136148477D01*
X153427443Y-136148477D01*
X154400000Y-137121035D01*
X155372557Y-136148477D01*
X155273958Y-135881675D01*
X154664418Y-135655239D01*
X154014623Y-135679299D01*
X153526042Y-135881675D01*
X153427443Y-136148477D01*
X150000762Y-136148477D01*
X149580922Y-136002378D01*
X149070572Y-136031917D01*
X148736271Y-136170389D01*
X148680590Y-136400982D01*
X148565130Y-136285522D01*
X148535000Y-136315652D01*
X148535000Y-130470132D01*
X148588188Y-130416944D01*
X148777910Y-130543713D01*
X149400000Y-130667454D01*
X150022090Y-130543713D01*
X150549473Y-130191327D01*
X150901859Y-129663944D01*
X151025600Y-129041854D01*
X151025600Y-128127000D01*
X152774400Y-128127000D01*
X152774400Y-129117600D01*
X152946742Y-129730023D01*
X153340330Y-130229876D01*
X153895243Y-130541060D01*
X154021041Y-130571411D01*
X154273000Y-130451942D01*
X154273000Y-128127000D01*
X154527000Y-128127000D01*
X154527000Y-130451942D01*
X154778959Y-130571411D01*
X154904757Y-130541060D01*
X155459670Y-130229876D01*
X155853258Y-129730023D01*
X156025600Y-129117600D01*
X156025600Y-128127000D01*
X157774400Y-128127000D01*
X157774400Y-129117600D01*
X157946742Y-129730023D01*
X158340330Y-130229876D01*
X158895243Y-130541060D01*
X159021041Y-130571411D01*
X159273000Y-130451942D01*
X159273000Y-128127000D01*
X159527000Y-128127000D01*
X159527000Y-130451942D01*
X159778959Y-130571411D01*
X159904757Y-130541060D01*
X160459670Y-130229876D01*
X160853258Y-129730023D01*
X161025600Y-129117600D01*
X161025600Y-128127000D01*
X159527000Y-128127000D01*
X159273000Y-128127000D01*
X157774400Y-128127000D01*
X156025600Y-128127000D01*
X154527000Y-128127000D01*
X154273000Y-128127000D01*
X152774400Y-128127000D01*
X151025600Y-128127000D01*
X151025600Y-126958146D01*
X151010534Y-126882400D01*
X152774400Y-126882400D01*
X152774400Y-127873000D01*
X154273000Y-127873000D01*
X154273000Y-125548058D01*
X154527000Y-125548058D01*
X154527000Y-127873000D01*
X156025600Y-127873000D01*
X156025600Y-126882400D01*
X157774400Y-126882400D01*
X157774400Y-127873000D01*
X159273000Y-127873000D01*
X159273000Y-125548058D01*
X159527000Y-125548058D01*
X159527000Y-127873000D01*
X161025600Y-127873000D01*
X161025600Y-126882400D01*
X160853258Y-126269977D01*
X160459670Y-125770124D01*
X159904757Y-125458940D01*
X159778959Y-125428589D01*
X159527000Y-125548058D01*
X159273000Y-125548058D01*
X159021041Y-125428589D01*
X158895243Y-125458940D01*
X158340330Y-125770124D01*
X157946742Y-126269977D01*
X157774400Y-126882400D01*
X156025600Y-126882400D01*
X155853258Y-126269977D01*
X155459670Y-125770124D01*
X154904757Y-125458940D01*
X154778959Y-125428589D01*
X154527000Y-125548058D01*
X154273000Y-125548058D01*
X154021041Y-125428589D01*
X153895243Y-125458940D01*
X153340330Y-125770124D01*
X152946742Y-126269977D01*
X152774400Y-126882400D01*
X151010534Y-126882400D01*
X150901859Y-126336056D01*
X150549473Y-125808673D01*
X150022090Y-125456287D01*
X149400000Y-125332546D01*
X148777910Y-125456287D01*
X148250527Y-125808673D01*
X147898141Y-126336056D01*
X147774400Y-126958146D01*
X147774400Y-128020468D01*
X146597434Y-129197434D01*
X146351397Y-129565654D01*
X146265000Y-130000000D01*
X146265000Y-136002560D01*
X146250000Y-136002560D01*
X146014683Y-136046838D01*
X145798559Y-136185910D01*
X145653569Y-136398110D01*
X145602560Y-136650000D01*
X145602560Y-136992308D01*
X144597434Y-137997434D01*
X144351397Y-138365654D01*
X144265000Y-138800000D01*
X144265000Y-151300000D01*
X144351397Y-151734346D01*
X144513070Y-151976306D01*
X144597434Y-152102566D01*
X145597434Y-153102567D01*
X145965655Y-153348604D01*
X146400000Y-153435000D01*
X147973516Y-153435000D01*
X148222927Y-153684846D01*
X148823453Y-153934206D01*
X149473694Y-153934774D01*
X149521551Y-153915000D01*
X150311000Y-153915000D01*
X150311000Y-156165000D01*
X147326484Y-156165000D01*
X147077073Y-155915154D01*
X146476547Y-155665794D01*
X145826306Y-155665226D01*
X145225345Y-155913538D01*
X144973444Y-156165000D01*
X144576484Y-156165000D01*
X144327073Y-155915154D01*
X143726547Y-155665794D01*
X143076306Y-155665226D01*
X142475345Y-155913538D01*
X142015154Y-156372927D01*
X141765794Y-156973453D01*
X141765226Y-157623694D01*
X140475760Y-157623694D01*
X140510868Y-123907000D01*
X172572868Y-123907000D01*
X172523132Y-171673000D01*
G36*
X159527000Y-154633000D02*
X159547000Y-154633000D01*
X159547000Y-154887000D01*
X159527000Y-154887000D01*
X159527000Y-154907000D01*
X159273000Y-154907000D01*
X159273000Y-154887000D01*
X159027000Y-154887000D01*
X159027000Y-154633000D01*
X159273000Y-154633000D01*
X159273000Y-154613000D01*
X159527000Y-154613000D01*
X159527000Y-154633000D01*
X159527000Y-154633000D01*
G37*
X159527000Y-154633000D02*
X159547000Y-154633000D01*
X159547000Y-154887000D01*
X159527000Y-154887000D01*
X159527000Y-154907000D01*
X159273000Y-154907000D01*
X159273000Y-154887000D01*
X159027000Y-154887000D01*
X159027000Y-154633000D01*
X159273000Y-154633000D01*
X159273000Y-154613000D01*
X159527000Y-154613000D01*
X159527000Y-154633000D01*
M02*
