M48
;DRILL file {KiCad 4.0.5+dfsg1-4} date Sat Jun 20 17:51:35 2020
;FORMAT={-:-/ absolute / metric / decimal}
FMAT,2
METRIC,TZ
T1C0.800
T2C0.900
T3C1.001
T4C1.200
T5C1.300
T6C1.321
%
G90
G05
M71
T1
X46.9Y-137.
X49.4Y-137.
X51.78Y-149.38
X51.78Y-151.92
X51.78Y-154.46
X51.78Y-157.
X59.4Y-137.
X59.4Y-149.38
X59.4Y-151.92
X59.4Y-154.46
X59.4Y-157.
X61.9Y-137.
X80.2Y-137.1
X82.7Y-137.1
X85.08Y-149.48
X85.08Y-152.02
X85.08Y-154.56
X85.08Y-157.1
X92.7Y-137.1
X92.7Y-149.48
X92.7Y-152.02
X92.7Y-154.56
X92.7Y-157.1
X95.2Y-137.1
X113.6Y-137.2
X116.1Y-137.2
X118.48Y-149.58
X118.48Y-152.12
X118.48Y-154.66
X118.48Y-157.2
X126.1Y-137.2
X126.1Y-149.58
X126.1Y-152.12
X126.1Y-154.66
X126.1Y-157.2
X128.6Y-137.2
X146.9Y-137.3
X149.4Y-137.3
X151.78Y-149.68
X151.78Y-152.22
X151.78Y-154.76
X151.78Y-157.3
X159.4Y-137.3
X159.4Y-149.68
X159.4Y-152.22
X159.4Y-154.76
X159.4Y-157.3
X161.9Y-137.3
T2
X59.4Y-142.
X61.9Y-152.
X64.4Y-142.
X66.9Y-152.
X92.7Y-142.1
X95.2Y-152.1
X97.7Y-142.1
X100.2Y-152.1
X126.1Y-142.2
X128.6Y-152.2
X131.1Y-142.2
X133.6Y-152.2
X159.4Y-142.3
X161.9Y-152.3
X164.4Y-142.3
X166.9Y-152.3
T3
X43.4Y-157.
X43.4Y-167.16
X46.15Y-157.
X46.15Y-167.16
X49.15Y-144.498
X49.15Y-149.499
X49.15Y-152.
X49.15Y-167.
X51.9Y-146.25
X54.4Y-137.001
X54.4Y-142.002
X62.06Y-146.25
X76.7Y-157.1
X76.7Y-167.26
X79.45Y-157.1
X79.45Y-167.26
X82.45Y-144.598
X82.45Y-149.599
X82.45Y-152.1
X82.45Y-167.1
X85.2Y-146.35
X87.7Y-137.101
X87.7Y-142.102
X95.36Y-146.35
X110.1Y-157.2
X110.1Y-167.36
X112.85Y-157.2
X112.85Y-167.36
X115.85Y-144.698
X115.85Y-149.699
X115.85Y-152.2
X115.85Y-167.2
X118.6Y-146.45
X121.1Y-137.201
X121.1Y-142.202
X128.76Y-146.45
X143.4Y-157.3
X143.4Y-167.46
X146.15Y-157.3
X146.15Y-167.46
X149.15Y-144.798
X149.15Y-149.799
X149.15Y-152.3
X149.15Y-167.3
X151.9Y-146.55
X154.4Y-137.301
X154.4Y-142.302
X162.06Y-146.55
T4
X64.4Y-154.5
X64.4Y-167.2
X97.7Y-154.6
X97.7Y-167.3
X131.1Y-154.7
X131.1Y-167.4
X164.4Y-154.8
X164.4Y-167.5
T5
X54.4Y-167.
X59.4Y-167.
X87.7Y-167.1
X92.7Y-167.1
X121.1Y-167.2
X126.1Y-167.2
X154.4Y-167.3
X159.4Y-167.3
T6
X49.4Y-127.7
X54.4Y-127.7
X59.4Y-127.7
X64.4Y-127.7
X82.7Y-127.8
X87.7Y-127.8
X92.7Y-127.8
X97.7Y-127.8
X116.1Y-127.9
X121.1Y-127.9
X126.1Y-127.9
X131.1Y-127.9
X149.4Y-128.
X154.4Y-128.
X159.4Y-128.
X164.4Y-128.
T0
M30
